<?xml version="1.0" encoding="UTF-8" standalone="no"?>
<svg
   xmlns:dc="http://purl.org/dc/elements/1.1/"
   xmlns:cc="http://creativecommons.org/ns#"
   xmlns:rdf="http://www.w3.org/1999/02/22-rdf-syntax-ns#"
   xmlns:svg="http://www.w3.org/2000/svg"
   xmlns="http://www.w3.org/2000/svg"
   viewBox="0 0 302.35999 97.186668"
   height="97.186668"
   width="302.35999"
   xml:space="preserve"
   id="svg2"
   version="1.1"><metadata
     id="metadata8"><rdf:RDF><cc:Work
         rdf:about=""><dc:format>image/svg+xml</dc:format><dc:type
           rdf:resource="http://purl.org/dc/dcmitype/StillImage" /><dc:title></dc:title></cc:Work></rdf:RDF></metadata><defs
     id="defs6" /><g
     transform="matrix(1.3333333,0,0,-1.3333333,0,97.186667)"
     id="g10"><g
       transform="scale(0.1)"
       id="g12"><path
         id="path14"
         style="fill:#100f0d;fill-opacity:1;fill-rule:nonzero;stroke:none"
         d="m 1114.98,607.754 h 65.19 l -32.4,91.789 z m -50.04,-74.547 68.87,190.438 h 27.53 l 68.87,-190.438 h -24.88 l -18.71,52.152 h -77.83 l -19.1,-52.152 h -24.75" /><path
         id="path16"
         style="fill:#100f0d;fill-opacity:1;fill-rule:nonzero;stroke:none"
         d="m 1301.2,530.574 c -7.11,0.086 -13.81,1.117 -20.09,3.098 -6.28,1.976 -11.83,4.891 -16.66,8.758 -4.83,3.855 -8.62,8.668 -11.39,14.418 -2.76,5.75 -4.15,12.449 -4.15,20.082 v 92.453 h 24.37 v -89.945 c 0,-8.875 2.75,-16.071 8.23,-21.602 5.48,-5.531 13.76,-8.297 24.83,-8.297 10,0 18.06,2.613 24.16,7.836 6.1,5.223 9.15,13.016 9.15,23.375 v 88.633 h 24.23 V 533.207 h -19.35 l -2.5,26.078 c -1.68,-6.847 -4.51,-12.383 -8.5,-16.597 -3.99,-4.215 -8.78,-7.309 -14.36,-9.286 -5.57,-1.968 -11.57,-2.918 -17.97,-2.828" /><path
         id="path18"
         style="fill:#100f0d;fill-opacity:1;fill-rule:nonzero;stroke:none"
         d="m 1447.65,530.574 c -9.49,0 -18.28,1.469 -26.41,4.41 -8.12,2.946 -14.86,7.547 -20.21,13.832 -5.36,6.274 -8.74,14.286 -10.15,24.028 h 22.13 c 1.23,-5.352 3.44,-9.805 6.65,-13.364 3.2,-3.554 7.23,-6.234 12.05,-8.031 4.83,-1.804 10.1,-2.699 15.81,-2.699 9.13,0 16.5,1.711 22.12,5.137 5.62,3.422 8.43,8.687 8.43,15.797 0,5.011 -1.47,9.027 -4.42,12.05 -2.94,3.036 -7.48,5.25 -13.62,6.657 l -28.19,6.976 c -10.98,2.633 -19.75,6.766 -26.34,12.387 -6.58,5.609 -9.87,13.473 -9.87,23.57 -0.09,7.989 1.8,15.012 5.66,21.071 3.86,6.054 9.65,10.843 17.39,14.355 7.72,3.512 17.34,5.27 28.84,5.27 14.75,0 26.67,-3.317 35.75,-9.946 9.09,-6.633 13.81,-16.355 14.16,-29.172 h -21.47 c -0.88,6.496 -3.8,11.657 -8.76,15.473 -4.95,3.82 -11.6,5.734 -19.94,5.734 -8.7,0 -15.77,-1.738 -21.2,-5.207 -5.45,-3.468 -8.17,-8.839 -8.17,-16.132 0,-4.829 1.92,-8.622 5.79,-11.391 3.86,-2.77 9.57,-5.066 17.12,-6.918 l 27.26,-6.848 c 6.33,-1.664 11.53,-3.859 15.61,-6.582 4.08,-2.722 7.32,-5.75 9.74,-9.086 2.42,-3.34 4.12,-6.824 5.14,-10.468 1,-3.649 1.51,-7.133 1.51,-10.473 0,-8.34 -2.08,-15.524 -6.26,-21.531 -4.16,-6.012 -10.13,-10.668 -17.91,-13.961 -7.76,-3.293 -17.17,-4.938 -28.24,-4.938" /><path
         id="path20"
         style="fill:#100f0d;fill-opacity:1;fill-rule:nonzero;stroke:none"
         d="m 1597.66,651.605 h -30.7 v -84.683 c 0,-4.828 0.51,-8.363 1.52,-10.602 1.01,-2.234 2.73,-3.668 5.13,-4.277 2.42,-0.617 5.73,-0.926 9.95,-0.926 h 14.88 v -16.328 c -1.67,-0.617 -4.2,-1.144 -7.57,-1.582 -3.38,-0.437 -7.57,-0.656 -12.58,-0.656 -9.39,0 -16.68,1.269 -21.86,3.82 -5.18,2.543 -8.8,6.317 -10.86,11.328 -2.07,5 -3.1,11.149 -3.1,18.438 v 85.468 h -22.13 v 17.778 h 22.79 l 5.92,39.637 h 17.91 v -39.504 h 30.7 v -17.911" /><path
         id="path22"
         style="fill:#100f0d;fill-opacity:1;fill-rule:nonzero;stroke:none"
         d="m 1630.04,533.207 v 136.176 h 23.18 v -26.207 c 2.29,6.496 5.49,11.875 9.62,16.133 4.13,4.254 8.85,7.441 14.15,9.546 5.32,2.11 10.83,3.165 16.53,3.165 2.03,0 4,-0.133 5.93,-0.395 1.93,-0.266 3.42,-0.703 4.48,-1.32 V 646.73 c -1.32,0.618 -3.01,1.032 -5.07,1.25 -2.07,0.219 -3.81,0.333 -5.2,0.333 -5.45,0.351 -10.53,0.019 -15.28,-0.993 -4.74,-1.004 -8.91,-2.742 -12.52,-5.199 -3.59,-2.457 -6.43,-5.683 -8.48,-9.676 -2.07,-4 -3.1,-8.851 -3.1,-14.554 v -84.684 h -24.24" /><path
         id="path24"
         style="fill:#100f0d;fill-opacity:1;fill-rule:nonzero;stroke:none"
         d="m 1771.09,548.09 c 4.57,0 9.12,0.828 13.63,2.504 4.52,1.664 8.67,3.926 12.45,6.781 3.77,2.848 6.79,6.055 9.02,9.609 2.24,3.563 3.41,7.223 3.49,11 v 23.309 l -20.29,-0.391 c -10.35,-0.179 -19.02,-1.234 -26,-3.16 -6.98,-1.933 -12.2,-4.961 -15.67,-9.094 -3.48,-4.125 -5.2,-9.523 -5.2,-16.195 0,-7.64 2.65,-13.605 7.96,-17.91 5.31,-4.301 12.19,-6.453 20.61,-6.453 z m -7.37,-17.516 c -8.78,0 -16.56,1.559 -23.31,4.68 -6.76,3.113 -12.05,7.609 -15.87,13.496 -3.82,5.883 -5.74,12.992 -5.74,21.332 0,15.102 5.27,26.344 15.81,33.715 10.54,7.375 27.44,11.328 50.7,11.855 l 24.37,0.661 v 10.664 c 0,8.343 -2.51,14.949 -7.5,19.824 -5.01,4.867 -12.79,7.308 -23.32,7.308 -7.81,-0.093 -14.68,-1.933 -20.61,-5.539 -5.92,-3.593 -9.76,-9.48 -11.52,-17.64 h -21.47 c 0.53,8.863 3.03,16.347 7.51,22.453 4.48,6.101 10.73,10.73 18.77,13.894 8.04,3.161 17.54,4.743 28.5,4.743 11.86,0 21.72,-1.672 29.57,-5.012 7.86,-3.332 13.74,-8.25 17.65,-14.746 3.91,-6.496 5.87,-14.485 5.87,-23.969 v -95.086 h -20.82 l -1.7,25.551 c -5.27,-10.625 -11.97,-17.981 -20.09,-22.063 -8.13,-4.082 -17.06,-6.121 -26.8,-6.121" /><path
         id="path26"
         style="fill:#100f0d;fill-opacity:1;fill-rule:nonzero;stroke:none"
         d="m 1904.38,531.496 c -7.38,0 -13.33,1.012 -17.86,3.031 -4.51,2.02 -7.98,4.743 -10.4,8.161 -2.41,3.429 -4.03,7.359 -4.87,11.789 -0.83,4.433 -1.25,9.023 -1.25,13.761 V 728.91 h 23.97 V 570.609 c 0,-6.847 1.33,-11.984 4.01,-15.406 2.68,-3.43 6.43,-5.312 11.26,-5.664 l 7.38,-0.133 v -15.801 c -2.02,-0.613 -4.13,-1.121 -6.33,-1.515 -2.18,-0.399 -4.16,-0.594 -5.91,-0.594" /><path
         id="path28"
         style="fill:#100f0d;fill-opacity:1;fill-rule:nonzero;stroke:none"
         d="M 1970.75,669.383 V 533.207 h -23.57 v 136.176 z m 0.53,54.129 v -25.285 h -24.89 v 25.285 h 24.89" /><path
         id="path30"
         style="fill:#100f0d;fill-opacity:1;fill-rule:nonzero;stroke:none"
         d="m 2055.96,548.09 c 4.56,0 9.11,0.828 13.63,2.504 4.52,1.664 8.66,3.926 12.45,6.781 3.77,2.848 6.78,6.055 9.02,9.609 2.24,3.563 3.4,7.223 3.49,11 v 23.309 l -20.29,-0.391 c -10.35,-0.179 -19.03,-1.234 -26.01,-3.16 -6.97,-1.933 -12.2,-4.961 -15.67,-9.094 -3.47,-4.125 -5.2,-9.523 -5.2,-16.195 0,-7.64 2.65,-13.605 7.97,-17.91 5.3,-4.301 12.18,-6.453 20.61,-6.453 z m -7.38,-17.516 c -8.77,0 -16.55,1.559 -23.31,4.68 -6.76,3.113 -12.05,7.609 -15.87,13.496 -3.81,5.883 -5.73,12.992 -5.73,21.332 0,15.102 5.27,26.344 15.8,33.715 10.54,7.375 27.45,11.328 50.71,11.855 l 24.37,0.661 v 10.664 c 0,8.343 -2.51,14.949 -7.5,19.824 -5.01,4.867 -12.79,7.308 -23.32,7.308 -7.82,-0.093 -14.69,-1.933 -20.61,-5.539 -5.93,-3.593 -9.77,-9.48 -11.52,-17.64 h -21.48 c 0.53,8.863 3.03,16.347 7.52,22.453 4.47,6.101 10.72,10.73 18.76,13.894 8.04,3.161 17.54,4.743 28.51,4.743 11.86,0 21.71,-1.672 29.57,-5.012 7.85,-3.332 13.74,-8.25 17.65,-14.746 3.9,-6.496 5.86,-14.485 5.86,-23.969 v -95.086 h -20.81 l -1.71,25.551 c -5.26,-10.625 -11.97,-17.981 -20.08,-22.063 -8.13,-4.082 -17.06,-6.121 -26.81,-6.121" /><path
         id="path32"
         style="fill:#100f0d;fill-opacity:1;fill-rule:nonzero;stroke:none"
         d="m 2153.8,533.207 v 136.176 h 23.58 v -19.758 c 2.19,3.781 5.24,7.332 9.15,10.676 3.91,3.328 8.65,6.004 14.22,8.031 5.58,2.016 12.01,3.027 19.29,3.027 8.61,0 16.53,-1.714 23.77,-5.136 7.25,-3.426 13.05,-8.758 17.4,-16.004 4.34,-7.239 6.51,-16.571 6.51,-27.985 v -89.027 h -24.37 v 86.66 c 0,10.617 -2.78,18.5 -8.35,23.641 -5.59,5.133 -12.81,7.699 -21.67,7.699 -6.15,0 -11.9,-0.988 -17.26,-2.957 -5.35,-1.977 -9.7,-4.965 -13.03,-8.961 -3.34,-3.992 -5.01,-9.019 -5.01,-15.078 v -91.004 h -24.23" /><path
         id="path34"
         style="fill:#100f0d;fill-opacity:1;fill-rule:nonzero;stroke:none"
         d="m 1192.54,478.762 h 24.37 V 288.328 h -21.73 l -102.2,150.133 V 288.328 h -24.36 v 190.434 h 23.31 L 1192.54,330.73 v 148.032" /><path
         id="path36"
         style="fill:#100f0d;fill-opacity:1;fill-rule:nonzero;stroke:none"
         d="m 1303.71,303.207 c 4.55,0 9.11,0.836 13.62,2.508 4.52,1.668 8.68,3.926 12.45,6.773 3.77,2.86 6.78,6.059 9.03,9.625 2.23,3.547 3.39,7.215 3.49,10.996 v 23.305 l -20.29,-0.391 c -10.35,-0.179 -19.02,-1.234 -26.01,-3.164 -6.98,-1.929 -12.2,-4.961 -15.67,-9.093 -3.47,-4.125 -5.2,-9.524 -5.2,-16.196 0,-7.636 2.65,-13.605 7.97,-17.91 5.3,-4.305 12.18,-6.453 20.61,-6.453 z m -7.39,-17.519 c -8.77,0 -16.55,1.566 -23.3,4.675 -6.77,3.121 -12.06,7.617 -15.88,13.508 -3.81,5.879 -5.72,12.992 -5.72,21.332 0,15.102 5.27,26.34 15.81,33.715 10.53,7.375 27.43,11.328 50.69,11.855 l 24.38,0.657 v 10.668 c 0,8.34 -2.51,14.945 -7.5,19.82 -5.02,4.871 -12.79,7.309 -23.32,7.309 -7.83,-0.086 -14.69,-1.93 -20.62,-5.532 -5.91,-3.597 -9.77,-9.484 -11.51,-17.648 h -21.48 c 0.52,8.867 3.03,16.351 7.51,22.453 4.47,6.105 10.73,10.734 18.76,13.895 8.05,3.164 17.54,4.742 28.52,4.742 11.86,0 21.71,-1.668 29.56,-5.004 7.87,-3.336 13.75,-8.254 17.66,-14.75 3.89,-6.5 5.86,-14.485 5.86,-23.965 v -95.09 h -20.81 l -1.71,25.547 c -5.28,-10.625 -11.98,-17.973 -20.08,-22.055 -8.13,-4.082 -17.07,-6.132 -26.82,-6.132" /><path
         id="path38"
         style="fill:#100f0d;fill-opacity:1;fill-rule:nonzero;stroke:none"
         d="m 1464.91,406.723 h -30.7 v -84.68 c 0,-4.828 0.51,-8.359 1.52,-10.605 1.01,-2.243 2.73,-3.668 5.13,-4.278 2.42,-0.609 5.73,-0.922 9.95,-0.922 h 14.88 v -16.324 c -1.67,-0.625 -4.2,-1.148 -7.57,-1.586 -3.38,-0.437 -7.57,-0.664 -12.58,-0.664 -9.39,0 -16.68,1.274 -21.86,3.824 -5.18,2.547 -8.81,6.321 -10.86,11.328 -2.07,5.008 -3.1,11.149 -3.1,18.43 v 85.477 h -22.13 v 17.781 h 22.79 l 5.92,39.641 h 17.91 v -39.508 h 30.7 v -17.914" /><path
         id="path40"
         style="fill:#100f0d;fill-opacity:1;fill-rule:nonzero;stroke:none"
         d="M 1523.63,424.504 V 288.328 h -23.57 v 136.176 z m 0.54,54.129 v -25.285 h -24.9 v 25.285 h 24.9" /><path
         id="path42"
         style="fill:#100f0d;fill-opacity:1;fill-rule:nonzero;stroke:none"
         d="m 1617.94,304.926 c 8.15,0 15.04,2.054 20.66,6.191 5.62,4.121 9.89,10.043 12.78,17.778 2.9,7.714 4.35,16.898 4.35,27.519 0,9.746 -1.27,18.508 -3.82,26.274 -2.55,7.769 -6.61,13.937 -12.18,18.507 -5.58,4.559 -12.84,6.852 -21.79,6.852 -8.26,0 -15.25,-2.043 -20.95,-6.129 -5.71,-4.082 -10.03,-9.992 -12.97,-17.715 -2.94,-7.726 -4.42,-16.988 -4.42,-27.789 0,-9.57 1.32,-18.258 3.96,-26.074 2.63,-7.817 6.76,-14.008 12.38,-18.574 5.62,-4.567 12.94,-6.84 22,-6.84 z m 0,-19.238 c -12.57,0 -23.55,2.707 -32.94,8.109 -9.39,5.394 -16.67,13.316 -21.85,23.769 -5.19,10.446 -7.78,23.219 -7.78,38.321 0,14.222 2.42,26.687 7.25,37.406 4.82,10.711 11.92,19.027 21.27,24.957 9.35,5.922 20.69,8.887 34.05,8.887 12.55,0 23.45,-2.746 32.71,-8.235 9.27,-5.484 16.45,-13.539 21.54,-24.164 5.1,-10.621 7.63,-23.574 7.63,-38.851 0,-13.867 -2.34,-26.078 -7.04,-36.617 -4.69,-10.532 -11.63,-18.758 -20.81,-24.692 -9.17,-5.918 -20.52,-8.89 -34.03,-8.89" /><path
         id="path44"
         style="fill:#100f0d;fill-opacity:1;fill-rule:nonzero;stroke:none"
         d="m 1709.19,288.328 v 136.176 h 23.58 V 404.75 c 2.19,3.773 5.24,7.328 9.15,10.668 3.91,3.328 8.65,6.012 14.22,8.031 5.58,2.02 12.01,3.031 19.3,3.031 8.61,0 16.52,-1.714 23.77,-5.132 7.24,-3.43 13.04,-8.762 17.39,-16.008 4.34,-7.242 6.51,-16.574 6.51,-27.985 v -89.027 h -24.36 v 86.66 c 0,10.621 -2.79,18.5 -8.36,23.637 -5.58,5.133 -12.81,7.699 -21.66,7.699 -6.16,0 -11.9,-0.984 -17.26,-2.957 -5.35,-1.976 -9.71,-4.961 -13.04,-8.957 -3.34,-3.996 -5.01,-9.015 -5.01,-15.082 v -91 h -24.23" /><path
         id="path46"
         style="fill:#100f0d;fill-opacity:1;fill-rule:nonzero;stroke:none"
         d="m 1903.19,303.207 c 4.56,0 9.11,0.836 13.63,2.508 4.52,1.668 8.67,3.926 12.45,6.773 3.77,2.86 6.78,6.059 9.02,9.625 2.24,3.547 3.4,7.215 3.49,10.996 v 23.305 l -20.29,-0.391 c -10.35,-0.179 -19.02,-1.234 -26.01,-3.164 -6.97,-1.929 -12.2,-4.961 -15.67,-9.093 -3.47,-4.125 -5.2,-9.524 -5.2,-16.196 0,-7.636 2.65,-13.605 7.97,-17.91 5.31,-4.305 12.18,-6.453 20.61,-6.453 z m -7.37,-17.519 c -8.78,0 -16.56,1.566 -23.31,4.675 -6.77,3.121 -12.06,7.617 -15.88,13.508 -3.81,5.879 -5.73,12.992 -5.73,21.332 0,15.102 5.27,26.34 15.81,33.715 10.53,7.375 27.44,11.328 50.7,11.855 l 24.37,0.657 v 10.668 c 0,8.34 -2.51,14.945 -7.5,19.82 -5.01,4.871 -12.79,7.309 -23.32,7.309 -7.82,-0.086 -14.68,-1.93 -20.61,-5.532 -5.92,-3.597 -9.76,-9.484 -11.52,-17.648 h -21.48 c 0.54,8.867 3.04,16.351 7.52,22.453 4.48,6.105 10.73,10.734 18.76,13.895 8.04,3.164 17.54,4.742 28.51,4.742 11.86,0 21.71,-1.668 29.57,-5.004 7.86,-3.336 13.74,-8.254 17.65,-14.75 3.9,-6.5 5.86,-14.485 5.86,-23.965 v -95.09 h -20.81 l -1.7,25.547 c -5.27,-10.625 -11.98,-17.973 -20.09,-22.055 -8.13,-4.082 -17.06,-6.132 -26.8,-6.132" /><path
         id="path48"
         style="fill:#100f0d;fill-opacity:1;fill-rule:nonzero;stroke:none"
         d="m 2036.48,286.613 c -7.38,0 -13.33,1.012 -17.86,3.028 -4.51,2.015 -7.98,4.746 -10.4,8.168 -2.41,3.425 -4.03,7.355 -4.87,11.789 -0.83,4.429 -1.25,9.023 -1.25,13.757 v 160.676 h 23.97 V 325.734 c 0,-6.855 1.33,-11.992 4.01,-15.414 2.68,-3.418 6.43,-5.316 11.26,-5.66 l 7.38,-0.137 v -15.804 c -2.02,-0.61 -4.13,-1.114 -6.33,-1.516 -2.18,-0.39 -4.16,-0.59 -5.91,-0.59" /><path
         id="path50"
         style="fill:#100f0d;fill-opacity:1;fill-rule:nonzero;stroke:none"
         d="m 1207.82,109.309 c 0,-14.6684 -2.41,-27.0902 -7.24,-37.2738 -4.83,-10.1875 -12.36,-17.9297 -22.58,-23.2383 -10.23,-5.3164 -23.51,-7.9805 -39.84,-7.9805 -16.51,0 -29.88,2.7305 -40.1,8.1719 -10.23,5.4492 -17.7,13.4336 -22.4,23.9687 -4.69,10.5352 -7.04,23.4922 -7.04,38.852 v 122.086 h 25.29 V 108.117 c 0,-15.3592 3.82,-26.8592 11.46,-34.4959 7.63,-7.6484 18.57,-11.4609 32.79,-11.4609 9.57,0 17.71,1.664 24.42,5.0078 6.72,3.332 11.86,8.3945 15.42,15.2031 3.55,6.8008 5.33,15.3906 5.33,25.7459 v 125.778 h 24.49 V 109.309" /><path
         id="path52"
         style="fill:#100f0d;fill-opacity:1;fill-rule:nonzero;stroke:none"
         d="M 1243.37,43.4609 V 179.629 h 23.58 v -19.746 c 2.2,3.773 5.25,7.32 9.16,10.668 3.9,3.328 8.66,6.008 14.21,8.027 5.58,2.024 12.02,3.027 19.31,3.027 8.61,0 16.51,-1.707 23.76,-5.136 7.25,-3.422 13.05,-8.75 17.4,-15.992 4.33,-7.247 6.5,-16.579 6.5,-27.989 V 43.4609 h -24.36 v 86.6481 c 0,10.625 -2.79,18.508 -8.35,23.645 -5.58,5.137 -12.8,7.703 -21.67,7.703 -6.15,0 -11.9,-0.98 -17.26,-2.957 -5.34,-1.98 -9.7,-4.969 -13.03,-8.961 -3.34,-3.992 -5.01,-9.023 -5.01,-15.082 V 43.4609 h -24.24" /><path
         id="path54"
         style="fill:#100f0d;fill-opacity:1;fill-rule:nonzero;stroke:none"
         d="M 1418.28,179.629 V 43.4609 h -23.57 V 179.629 Z m 0.53,54.133 V 208.48 h -24.89 v 25.282 h 24.89" /><path
         id="path56"
         style="fill:#100f0d;fill-opacity:1;fill-rule:nonzero;stroke:none"
         d="M 1564.85,179.629 1515.74,43.4609 h -22.13 l -49.25,136.1681 h 22.91 l 36.22,-105.6173 h 2.23 l 36.36,105.6173 h 22.77" /><path
         id="path58"
         style="fill:#100f0d;fill-opacity:1;fill-rule:nonzero;stroke:none"
         d="m 1600.94,122.348 h 74.01 c 0,7.816 -1.32,14.855 -3.96,21.136 -2.63,6.274 -6.64,11.239 -12.05,14.883 -5.39,3.645 -12.18,5.457 -20.34,5.457 -8.52,0 -15.56,-2.035 -21.14,-6.121 -5.57,-4.082 -9.74,-9.301 -12.51,-15.668 -2.77,-6.363 -4.1,-12.926 -4.01,-19.687 z m -0.13,-16.469 c 0,-8.6017 1.42,-16.3946 4.27,-23.3712 2.85,-6.9844 7.21,-12.539 13.05,-16.664 5.83,-4.1211 13.14,-6.1915 21.92,-6.1915 8.69,0 16.18,2.0274 22.46,6.0586 6.26,4.0469 10.29,9.8868 12.05,17.5196 h 23.04 c -1.67,-9.2188 -5.35,-16.9883 -11.06,-23.3047 -5.71,-6.3242 -12.6,-11.0899 -20.68,-14.293 -8.08,-3.207 -16.51,-4.8164 -25.29,-4.8164 -12.72,0 -23.92,2.7695 -33.57,8.3008 -9.67,5.5391 -17.22,13.4726 -22.66,23.8398 -5.45,10.3555 -8.17,22.7891 -8.17,37.266 0,14.32 2.46,26.871 7.38,37.672 4.91,10.804 12.05,19.234 21.4,25.281 9.35,6.058 20.61,9.094 33.79,9.094 12.81,0 23.65,-2.77 32.53,-8.301 8.85,-5.528 15.6,-13.328 20.21,-23.379 4.61,-10.055 6.91,-21.973 6.91,-35.746 v -8.965 h -97.58" /><path
         id="path60"
         style="fill:#100f0d;fill-opacity:1;fill-rule:nonzero;stroke:none"
         d="M 1729.08,43.4609 V 179.629 h 23.18 V 153.43 c 2.29,6.496 5.49,11.871 9.61,16.125 4.14,4.265 8.85,7.445 14.16,9.554 5.32,2.106 10.83,3.161 16.52,3.161 2.03,0 4.01,-0.133 5.94,-0.391 1.92,-0.274 3.42,-0.715 4.47,-1.324 V 156.98 c -1.31,0.618 -3,1.036 -5.06,1.254 -2.07,0.211 -3.81,0.325 -5.2,0.325 -5.45,0.351 -10.54,0.019 -15.29,-0.985 -4.73,-1.015 -8.9,-2.746 -12.51,-5.199 -3.6,-2.465 -6.43,-5.687 -8.49,-9.684 -2.06,-3.992 -3.1,-8.843 -3.1,-14.558 V 43.4609 h -24.23" /><path
         id="path62"
         style="fill:#100f0d;fill-opacity:1;fill-rule:nonzero;stroke:none"
         d="m 1875.92,40.8164 c -9.48,0 -18.28,1.4766 -26.41,4.4141 -8.12,2.9414 -14.86,7.5625 -20.21,13.8281 -5.36,6.2812 -8.74,14.2891 -10.14,24.043 h 22.12 c 1.24,-5.3594 3.44,-9.8125 6.66,-13.3789 3.19,-3.5469 7.22,-6.2305 12.05,-8.0274 4.82,-1.8008 10.09,-2.6914 15.8,-2.6914 9.13,0 16.51,1.7031 22.12,5.1367 5.62,3.4219 8.43,8.6836 8.43,15.7969 0,5 -1.47,9.0273 -4.42,12.0508 -2.94,3.0351 -7.48,5.2422 -13.62,6.6484 l -28.19,6.9803 c -10.97,2.645 -19.75,6.766 -26.34,12.383 -6.58,5.621 -9.87,13.477 -9.87,23.57 -0.09,7.989 1.8,15.02 5.66,21.071 3.86,6.062 9.65,10.847 17.39,14.359 7.72,3.512 17.34,5.27 28.84,5.27 14.75,0 26.67,-3.313 35.75,-9.95 9.09,-6.629 13.81,-16.351 14.16,-29.164 h -21.47 c -0.88,6.489 -3.8,11.649 -8.76,15.469 -4.95,3.824 -11.6,5.734 -19.94,5.734 -8.7,0 -15.76,-1.738 -21.2,-5.211 -5.45,-3.46 -8.17,-8.839 -8.17,-16.125 0,-4.835 1.93,-8.625 5.79,-11.394 3.86,-2.766 9.57,-5.07 17.13,-6.914 l 27.25,-6.848 c 6.33,-1.672 11.53,-3.859 15.61,-6.59 4.09,-2.718 7.32,-5.746 9.75,-9.082 2.41,-3.3395 4.12,-6.8317 5.13,-10.4723 1,-3.6446 1.52,-7.1329 1.52,-10.4649 0,-8.3398 -2.09,-15.5234 -6.26,-21.5351 -4.17,-6.0079 -10.14,-10.668 -17.91,-13.9571 -7.77,-3.2929 -17.18,-4.9492 -28.25,-4.9492" /><path
         id="path64"
         style="fill:#100f0d;fill-opacity:1;fill-rule:nonzero;stroke:none"
         d="M 1986.02,179.629 V 43.4609 h -23.57 V 179.629 Z m 0.53,54.133 V 208.48 h -24.89 v 25.282 h 24.89" /><path
         id="path66"
         style="fill:#100f0d;fill-opacity:1;fill-rule:nonzero;stroke:none"
         d="m 2094.54,161.859 h -30.7 V 77.1719 c 0,-4.8242 0.52,-8.3594 1.52,-10.6055 1.01,-2.2383 2.73,-3.6641 5.14,-4.2734 2.42,-0.6133 5.73,-0.9219 9.94,-0.9219 h 14.88 V 45.043 c -1.66,-0.6211 -4.19,-1.1446 -7.57,-1.5821 -3.37,-0.4453 -7.57,-0.664 -12.57,-0.664 -9.4,0 -16.68,1.2734 -21.87,3.8203 -5.18,2.5508 -8.8,6.3203 -10.86,11.3281 -2.06,5.0078 -3.1,11.1485 -3.1,18.4336 v 85.4801 h -22.12 v 17.77 h 22.79 l 5.91,39.644 h 17.91 V 179.77 h 30.7 v -17.911" /><path
         id="path68"
         style="fill:#100f0d;fill-opacity:1;fill-rule:nonzero;stroke:none"
         d="m 2141.29,0 c -7.99,0 -14.97,1.14453 -20.94,3.42188 V 19.2266 l 13.83,-0.2618 c 5.09,-0.1835 9.31,0.168 12.64,1.0508 3.34,0.875 6.01,2.0586 8.03,3.5547 2.02,1.4961 3.58,3.1602 4.68,5.0078 1.1,1.8438 2,3.6016 2.7,5.2696 l 4.73,12.9023 -53.19,132.879 h 24.62 l 40.17,-105.086 39.9,105.086 h 23.84 L 2184.87,33.1797 C 2181.36,24.582 2177.44,17.8594 2173.1,13.0352 2168.75,8.20703 2163.92,4.82813 2158.61,2.89063 2153.29,0.964844 2147.52,0 2141.29,0" /><path
         id="path70"
         style="fill:#bb811b;fill-opacity:1;fill-rule:nonzero;stroke:none"
         d="m 838.324,98.7656 c -15.801,18.0474 -48.547,37.4224 -93.347,37.4224 -57.817,0 -196.164,-99.7583 -308.903,-99.7583 -112.742,0 -251.062,99.7583 -308.89,99.7583 -44.7973,0 -77.5356,-19.375 -93.3442,-37.4224 C 33.5664,133 27.3555,147.414 11.9453,174.074 c 19.3828,18.18 56.4922,50.86 106.7577,50.86 83.445,0 247.559,-103.098 317.371,-103.098 69.809,0 233.942,103.098 317.379,103.098 50.277,0 87.371,-32.68 106.758,-50.86 C 844.809,147.414 838.605,133 838.324,98.7656 Z M 790.293,51.9258 c -39.254,-0.125 -50.273,28.1406 -50.273,38.8828 0,12.0934 4.054,26.8044 6.699,35.3864 65.629,-1.785 92.265,-40.0231 92.265,-49.2184 C 838.922,65.1133 814.23,52 790.293,51.9258 Z m -58.852,29.7305 c -11.148,8.1914 -26.265,18.2968 -44.496,28.1327 19.785,8.524 36.563,13.875 49.207,15.703 -4.507,-15.304 -8.132,-32.3123 -4.711,-43.8357 z m -590.707,0 c 3.411,11.5234 -0.214,28.5317 -4.722,43.8357 12.64,-1.828 29.429,-7.179 49.207,-15.703 C 166.992,99.9531 151.867,89.8477 140.734,81.6563 Z M 81.8789,51.9258 C 57.9297,52 33.2422,65.1133 33.1836,76.9766 c 0,9.1953 26.6367,47.4334 92.2574,49.2184 2.649,-8.582 6.704,-23.293 6.704,-35.3864 0,-10.7422 -11.032,-39.0078 -50.2661,-38.8828 z M 59.8633,323.949 c 0,11.067 6.8711,17.453 16.6953,17.61 11.3555,0.16 29.9964,-11.145 43.3364,-26.461 l -19.786,-11.989 c -4.7067,-10.433 4.934,-38.027 25.887,-38.027 11.305,0 16.957,7.859 33.723,17.109 l 25.039,-59.515 c -23.817,7.426 -46.262,12.195 -66.055,12.195 -8.465,0 -15.703,-0.625 -22.5389,-1.816 -2.9375,6.019 -5.875,11.968 -8.75,17.758 -18.5821,37.367 -27.5508,58.16 -27.5508,73.136 z m 70.5117,-48.293 c -7.961,-3.261 -22.891,7.711 -21.434,21.192 l 17.133,10.375 c 9.672,-12.442 11.227,-28.735 4.301,-31.567 z m -9.148,103.442 c 8.535,4.777 18.011,5.054 28.168,0.84 19.925,-8.293 37.902,-32.422 41.507,-45.375 4.852,-17.395 -1.781,-22.391 -1.847,-22.43 L 144.34,284.324 c 3.156,22.649 -38.633,68.321 -68.6525,67.078 10.4453,8.282 45.5395,27.696 45.5395,27.696 z m 591.234,-96.907 c 16.75,-9.25 22.402,-17.109 33.707,-17.109 20.953,0 30.59,27.594 25.879,38.027 l -19.785,11.989 c 13.347,15.316 31.988,26.621 43.347,26.461 9.817,-0.157 16.692,-6.543 16.692,-17.61 0,-14.976 -8.977,-35.769 -27.539,-73.136 -2.875,-5.79 -5.824,-11.739 -8.762,-17.758 -6.824,1.191 -14.074,1.816 -22.547,1.816 -19.781,0 -42.23,-4.769 -66.055,-12.195 z m 50.762,14.657 c 1.457,-13.481 -13.465,-24.453 -21.43,-21.192 -6.93,2.832 -5.387,19.125 4.297,31.567 z m -80.118,15.285 c -0.066,0.039 -6.687,5.035 -1.839,22.43 3.609,12.953 21.586,37.082 41.519,45.375 10.129,4.214 19.613,3.937 28.156,-0.84 0,0 35.098,-19.414 45.539,-27.696 -30.023,1.243 -71.812,-44.429 -68.664,-67.078 z m 186.907,-133.68 c -21.739,21.746 -49.387,42.824 -84.012,52.399 2.559,5.25 36.145,65.816 36.145,93.086 0,9.191 -3.918,20.796 -15.481,31.839 -9.617,9.2 -50.871,31.993 -50.871,31.993 -11.18,6.25 -23.918,6.707 -36.836,1.328 -23.894,-9.93 -43.113,-36.977 -47.266,-51.879 -6.906,-24.77 4.774,-32.676 6.079,-33.457 l 26.14,-16.254 -28.992,-68.91 C 630.406,204.66 485.441,131.766 436.074,131.766 c -49.363,0 -194.316,72.894 -238.824,86.832 l -28.996,68.91 26.144,16.254 c 1.305,0.781 12.989,8.687 6.075,33.457 -4.153,14.902 -23.379,41.949 -47.266,51.879 -12.93,5.379 -25.664,4.922 -36.828,-1.328 0,0 -41.2657,-22.793 -50.879,-31.993 -11.5703,-11.043 -15.4844,-22.648 -15.4844,-31.839 0,-27.27 33.5938,-87.836 36.1563,-93.086 -34.625,-9.575 -62.2813,-30.653 -84.01174,-52.399 -1.621097,-1.609 -1.929691,-4.129 -0.73828,-6.094 0.14062,-0.23 14.51952,-24.148 19.06642,-40.632 4.9609,-17.961 2.8047,-55.1606 2.8047,-55.2153 0.4726,-16.9726 27.5195,-34.582 59.4922,-34.582 44.6488,0 46.9768,29.9336 113.9728,62.6993 13.984,-6.7462 150.101,-78.1368 239.316,-78.1368 89.211,0 225.348,71.3906 239.34,78.1368 66.984,-32.7657 69.316,-62.6993 113.973,-62.6993 31.976,0 59.015,17.6094 59.48,34.582 0.012,0.0547 -2.156,37.2543 2.793,55.2153 4.567,16.484 18.93,40.402 19.086,40.632 1.199,1.965 0.891,4.485 -0.734,6.094" /><path
         id="path72"
         style="fill:#bb811b;fill-opacity:1;fill-rule:nonzero;stroke:none"
         d="m 48.7852,141.098 c 1.3086,0.746 2.0351,1.199 2.2031,1.367 0.0976,0.117 0.164,0.254 0.1875,0.414 0.0195,0.16 -0.0235,0.449 -0.1602,0.848 -0.1797,0.554 -0.7031,1.832 -1.5859,3.839 -0.5039,1.137 -1.1953,2.61 -2.0859,4.391 l -3.1993,6.492 -2.9726,5.832 c -0.5078,0.973 -0.8477,1.59 -1.0586,1.867 -0.1992,0.266 -0.3906,0.442 -0.5664,0.524 -0.1797,0.101 -0.4141,0.117 -0.7071,0.07 -0.2929,-0.039 -1.0625,-0.308 -2.3125,-0.808 l -0.8398,1.703 c 1.5,0.613 2.5977,1.097 3.2813,1.433 l 2.457,1.297 1.543,0.856 c 4.1406,-2.461 9.0625,-5.231 14.7421,-8.305 4.0977,-2.211 7.4102,-3.883 9.9454,-5.027 l -2.293,4.672 c -3.5742,7.242 -5.7422,11.464 -6.5195,12.679 -0.2891,0.469 -0.5508,0.742 -0.7813,0.817 -0.375,0.101 -1.3437,-0.204 -2.8711,-0.918 l -0.8437,1.687 c 1.4453,0.602 2.7421,1.184 3.9179,1.766 1.1289,0.554 2.5664,1.328 4.2969,2.297 l 0.8398,-1.703 c -1.371,-0.723 -2.1406,-1.254 -2.3125,-1.586 -0.0546,-0.11 -0.0703,-0.247 -0.0351,-0.399 0.1562,-0.762 0.8125,-2.351 1.9531,-4.777 1.1289,-2.418 1.9766,-4.215 2.543,-5.363 4.4101,-8.954 7.164,-14.34 8.2578,-16.18 l -0.1367,-0.297 c -1.0547,-0.285 -2.1172,-0.598 -3.1797,-0.918 -6.1016,3.039 -14.9414,7.754 -26.5274,14.133 l 4.961,-10.055 c 1.0195,-2.094 2.1289,-4.234 3.332,-6.469 0.8203,-1.539 1.3477,-2.457 1.6211,-2.742 0.1211,-0.144 0.2578,-0.23 0.418,-0.277 0.1562,-0.051 0.3828,-0.031 0.6758,0.07 0.8007,0.262 1.3671,0.465 1.7109,0.641 0.0703,0.035 0.1836,0.097 0.3398,0.183 l 0.8047,-1.629 c -2.1914,-1.027 -3.4375,-1.621 -3.7422,-1.765 -1.1132,-0.547 -2.5976,-1.344 -4.4609,-2.387 l -0.8398,1.727" /><path
         id="path74"
         style="fill:#bb811b;fill-opacity:1;fill-rule:nonzero;stroke:none"
         d="m 79.7695,165.293 c 1.1719,0.297 2.4883,0.648 3.9532,1.062 1.414,0.403 2.6757,0.778 3.7734,1.141 l -7.1289,10.067 z m -4.7734,-14.027 -0.5117,1.797 c 0.9648,0.371 1.5351,0.621 1.707,0.738 0.1758,0.125 0.3125,0.265 0.4024,0.433 0.0976,0.188 0.1757,0.442 0.2265,0.778 0.0664,0.332 0.1641,1.554 0.3242,3.66 0.0664,0.98 0.1758,2.933 0.3321,5.832 l 0.8359,15.316 0.207,5.379 2.6172,0.746 14.668,-20.273 1.9883,-2.637 1.3047,-1.781 c 0.1914,-0.227 0.3671,-0.387 0.5117,-0.469 0.1406,-0.086 0.289,-0.137 0.4536,-0.152 0.152,-0.02 0.523,0.035 1.121,0.156 0.183,0.024 0.461,0.063 0.839,0.129 l 0.512,-1.805 -5.16,-1.308 -6.418,-1.989 -0.5156,1.793 c 1.4727,0.504 2.2774,0.84 2.4336,1.016 0.1523,0.18 0.1914,0.406 0.1133,0.695 -0.1055,0.36 -0.418,0.907 -0.9336,1.653 l -2.9336,4.297 -9.4883,-2.715 -0.0664,-2.805 c -0.043,-2.164 0,-3.492 0.1367,-3.98 0.0977,-0.348 0.2696,-0.571 0.5039,-0.657 0.3516,-0.105 1.2696,0.008 2.7422,0.364 l 0.5117,-1.797 -4.2851,-1.059 -4.1797,-1.355" /><path
         id="path76"
         style="fill:#bb811b;fill-opacity:1;fill-rule:nonzero;stroke:none"
         d="m 103.488,159.703 -0.226,1.848 c 1.519,0.234 2.406,0.453 2.679,0.668 0.262,0.215 0.411,0.539 0.465,0.961 0.063,0.656 -0.093,2.593 -0.465,5.828 l -1.566,13.387 c -0.434,3.652 -0.691,5.691 -0.777,6.121 l -2.719,-0.325 c -1.3673,-0.156 -2.5743,-0.347 -3.6017,-0.582 -0.4062,-0.086 -0.6367,-0.179 -0.6953,-0.261 -0.0742,-0.094 -0.1211,-0.368 -0.125,-0.801 -0.0547,-1.067 0,-2.242 0.1211,-3.551 l -1.582,-0.176 c -0.4102,3.047 -0.6406,4.77 -0.6992,5.153 -0.1172,0.652 -0.2617,1.347 -0.4375,2.097 L 94,190.316 c 0.6055,0 1.2461,0.008 1.9141,0.063 1.0937,0.09 3.1992,0.312 6.2969,0.668 l 7.676,0.902 c 3.191,0.371 5.324,0.649 6.386,0.817 0.594,0.101 1.168,0.226 1.75,0.363 l 0.223,-0.191 c -0.012,-0.934 0.012,-1.739 0.07,-2.426 0,-0.117 0.161,-1.758 0.497,-4.91 l -1.583,-0.18 c -0.156,1.156 -0.363,2.258 -0.636,3.297 -0.137,0.531 -0.262,0.847 -0.36,0.937 -0.082,0.063 -0.293,0.086 -0.617,0.086 -1.054,-0.004 -2.32,-0.097 -3.769,-0.258 l -2.723,-0.32 c 0.027,-0.527 0.246,-2.57 0.664,-6.141 l 1.57,-13.386 c 0.379,-3.223 0.676,-5.149 0.887,-5.785 0.137,-0.387 0.363,-0.657 0.676,-0.805 0.312,-0.156 1.23,-0.168 2.762,-0.039 l 0.211,-1.852 c -2.465,-0.148 -4.547,-0.324 -6.227,-0.523 -1.805,-0.203 -3.855,-0.512 -6.18,-0.93" /><path
         id="path78"
         style="fill:#bb811b;fill-opacity:1;fill-rule:nonzero;stroke:none"
         d="m 120.785,191.285 0.153,1.852 6.187,-0.676 2.574,-0.168 2.586,-0.133 0.707,-0.039 -0.156,-1.859 c -1.375,0.113 -2.254,0.043 -2.656,-0.215 -0.2,-0.109 -0.344,-0.367 -0.45,-0.742 -0.253,-0.918 -0.511,-2.953 -0.785,-6.106 l -0.433,-5.203 -0.207,-2.637 c -0.235,-2.718 -0.352,-4.429 -0.356,-5.062 0,-1.418 0.207,-2.578 0.606,-3.484 0.425,-0.903 1.097,-1.661 2.05,-2.274 0.958,-0.613 2.204,-0.992 3.743,-1.117 1.761,-0.152 3.203,0.086 4.308,0.703 1.11,0.617 1.934,1.484 2.477,2.582 0.543,1.109 0.953,3.246 1.211,6.43 l 0.39,4.582 c 0.336,3.949 0.539,6.355 0.59,7.219 0.129,1.89 0.133,3.035 0.031,3.433 -0.07,0.25 -0.207,0.442 -0.402,0.578 -0.394,0.293 -1.297,0.516 -2.699,0.688 l 0.152,1.855 c 2.293,-0.304 3.653,-0.472 4.09,-0.5 0.113,-0.012 0.289,-0.023 0.516,-0.027 l 4.242,-0.219 -0.156,-1.871 c -1.184,0.113 -1.93,0.059 -2.25,-0.141 -0.168,-0.113 -0.321,-0.328 -0.438,-0.648 -0.121,-0.332 -0.344,-1.844 -0.656,-4.523 -0.313,-2.684 -0.555,-4.809 -0.68,-6.364 l -0.441,-5.277 c -0.11,-1.336 -0.32,-2.727 -0.61,-4.145 -0.277,-1.422 -0.722,-2.625 -1.304,-3.597 -0.594,-0.973 -1.379,-1.832 -2.364,-2.582 -0.984,-0.735 -2.128,-1.27 -3.41,-1.582 -1.304,-0.317 -2.769,-0.395 -4.429,-0.25 -1.934,0.16 -3.711,0.617 -5.336,1.371 -1.184,0.551 -2.125,1.234 -2.848,2.058 -0.707,0.817 -1.227,1.719 -1.555,2.692 -0.332,0.972 -0.5,1.883 -0.511,2.758 -0.024,0.543 0.074,1.996 0.273,4.363 l 0.383,4.312 0.48,5.696 c 0.184,2.086 0.305,3.984 0.387,5.66 0.012,0.664 -0.027,1.144 -0.113,1.461 -0.051,0.16 -0.188,0.375 -0.422,0.625 l -2.469,0.523" /><path
         id="path80"
         style="fill:#bb811b;fill-opacity:1;fill-rule:nonzero;stroke:none"
         d="m 151.605,188.383 0.465,1.785 c 0.289,-0.063 1.266,-0.355 2.942,-0.855 0.824,-0.254 1.984,-0.571 3.508,-0.961 1.289,-0.336 2.41,-0.59 3.355,-0.766 1.547,-0.309 2.832,-0.598 3.836,-0.856 1.945,-0.503 3.348,-1.035 4.227,-1.617 0.878,-0.574 1.523,-1.468 1.937,-2.675 0.422,-1.204 0.434,-2.555 0.043,-4.043 -0.449,-1.762 -1.332,-3.235 -2.625,-4.438 -1.293,-1.199 -3.012,-1.977 -5.16,-2.324 0.14,-0.731 0.316,-1.481 0.539,-2.266 0.223,-0.785 0.348,-1.25 0.379,-1.414 0.035,-0.156 0.066,-0.312 0.105,-0.465 l 1.574,-5.777 c 0.418,-1.543 0.645,-2.367 0.688,-2.492 0.551,-1.676 0.895,-2.672 1.043,-2.996 0.148,-0.305 0.301,-0.535 0.477,-0.688 0.167,-0.156 0.546,-0.312 1.125,-0.472 l -0.5,-1.93 c -1.883,0.562 -3.254,0.937 -4.114,1.156 -0.984,0.262 -1.976,0.481 -2.965,0.676 0.02,0.332 -0.019,0.789 -0.125,1.359 l -1.984,8.711 c -0.566,2.508 -1.078,4.488 -1.551,5.957 -0.226,0.75 -0.488,1.317 -0.777,1.738 l 0.394,0.661 c 1.465,-0.434 2.633,-0.536 3.489,-0.321 0.859,0.219 1.695,0.789 2.48,1.739 0.801,0.929 1.367,2.062 1.707,3.398 0.344,1.332 0.36,2.516 0.055,3.543 -0.328,1.02 -0.836,1.82 -1.551,2.383 -0.465,0.347 -1.363,0.687 -2.691,1.035 -0.594,0.152 -1.203,0.25 -1.809,0.277 -0.176,-0.511 -0.512,-1.679 -1.023,-3.504 -1.133,-4.093 -1.879,-6.832 -2.243,-8.218 -0.55,-2.176 -1.136,-4.5 -1.734,-6.953 -0.711,-3.008 -1.121,-4.727 -1.203,-5.129 -0.164,-0.832 -0.23,-1.383 -0.195,-1.649 0.019,-0.133 0.07,-0.262 0.156,-0.39 0.082,-0.114 0.254,-0.239 0.476,-0.356 0.231,-0.121 0.938,-0.351 2.11,-0.699 l -0.485,-1.906 c -2.089,0.648 -4.218,1.242 -6.375,1.8 -1.929,0.5 -3.722,0.907 -5.402,1.231 l 0.5,1.918 c 1.422,-0.305 2.274,-0.445 2.567,-0.406 0.164,0.004 0.285,0.058 0.371,0.14 0.097,0.078 0.207,0.27 0.32,0.567 0.238,0.543 0.516,1.386 0.844,2.519 l 1.793,6.344 2.09,8.098 1.093,4.628 c 0.442,1.821 0.653,2.93 0.629,3.329 -0.023,0.179 -0.082,0.324 -0.187,0.441 -0.246,0.246 -1.118,0.633 -2.618,1.133" /><path
         id="path82"
         style="fill:#bb811b;fill-opacity:1;fill-rule:nonzero;stroke:none"
         d="m 182.5,161.219 c 1.113,-0.453 2.379,-0.957 3.805,-1.489 1.383,-0.527 2.621,-0.957 3.718,-1.328 l 0.243,12.336 z m -12.168,-8.461 0.648,1.746 c 1.008,-0.274 1.614,-0.41 1.817,-0.426 0.211,0 0.402,0.047 0.586,0.129 0.183,0.078 0.402,0.242 0.637,0.477 0.25,0.242 1.066,1.16 2.437,2.761 0.629,0.75 1.867,2.254 3.719,4.493 l 9.75,11.839 3.367,4.203 2.547,-0.957 -0.203,-25.003 0.027,-3.317 -0.008,-2.207 c 0.024,-0.301 0.078,-0.523 0.129,-0.672 0.07,-0.156 0.168,-0.273 0.281,-0.39 0.11,-0.114 0.442,-0.289 0.997,-0.539 0.164,-0.102 0.414,-0.223 0.75,-0.407 l -0.653,-1.746 -4.933,2.012 -6.348,2.195 0.656,1.754 c 1.473,-0.473 2.328,-0.68 2.551,-0.629 0.23,0.055 0.398,0.215 0.508,0.492 0.125,0.352 0.207,0.985 0.226,1.879 l 0.184,5.196 -9.238,3.457 -1.731,-2.227 c -1.316,-1.707 -2.066,-2.812 -2.242,-3.277 -0.129,-0.34 -0.121,-0.625 0.02,-0.832 0.214,-0.301 1.019,-0.742 2.417,-1.332 l -0.652,-1.754 -4.082,1.695 -4.164,1.387" /><path
         id="path84"
         style="fill:#bb811b;fill-opacity:1;fill-rule:nonzero;stroke:none"
         d="m 197.563,142.547 0.789,1.75 c 1.367,-0.481 2.187,-0.719 2.488,-0.719 0.156,-0.015 0.312,0.031 0.465,0.137 0.179,0.125 0.367,0.359 0.55,0.676 0.426,0.754 1.266,2.433 2.512,5.035 0.598,1.254 1.594,3.433 2.992,6.547 1.246,2.773 2.329,5.25 3.25,7.41 0.938,2.156 1.434,3.476 1.5,3.93 0.039,0.214 0.032,0.394 -0.019,0.542 -0.059,0.153 -0.203,0.305 -0.457,0.489 -0.703,0.492 -1.367,0.89 -1.965,1.199 l 0.781,1.75 c 2.348,-1.168 3.989,-1.957 4.895,-2.375 1.199,-0.535 2.426,-1.023 3.676,-1.469 l -0.278,-4.758 -0.164,-3.625 -0.48,-15.972 c 2.394,2.164 4.222,3.867 5.488,5.086 l 4.852,4.664 c 2.714,2.597 4.359,4.199 4.98,4.808 0.609,0.614 1.359,1.391 2.219,2.352 1.488,-0.785 2.441,-1.266 2.871,-1.461 l 5.281,-2.191 -0.781,-1.747 -0.242,0.114 c -1.184,0.539 -2.02,0.719 -2.489,0.523 -0.457,-0.191 -0.918,-0.769 -1.339,-1.722 -0.508,-1.137 -0.907,-2.004 -1.184,-2.586 l -2.656,-5.735 -3.223,-7.222 c -0.797,-1.754 -1.25,-2.786 -1.371,-3.086 -0.684,-1.778 -1.074,-2.879 -1.195,-3.317 -0.047,-0.203 -0.051,-0.386 -0.016,-0.551 0.043,-0.152 0.141,-0.3 0.293,-0.437 0.152,-0.141 0.848,-0.563 2.098,-1.234 l -0.766,-1.754 -5.523,2.648 -5.528,2.301 0.789,1.75 c 1.469,-0.594 2.332,-0.863 2.602,-0.809 0.273,0.055 0.562,0.313 0.875,0.778 0.312,0.472 1.121,2.148 2.41,5.043 l 6.715,14.953 -8.371,-7.813 -4.086,-3.926 c -1.082,-1.031 -2.621,-2.535 -4.633,-4.511 -1.223,-1.199 -2.188,-2.164 -2.914,-2.914 l -1.188,0.535 c 0.098,1.332 0.2,3.18 0.297,5.531 0.192,4.035 0.309,7.051 0.364,9.051 l 0.359,13.094 -4.531,-10.098 c -0.75,-1.68 -1.625,-3.688 -2.625,-6.031 -1.004,-2.336 -1.551,-3.672 -1.641,-4.004 -0.09,-0.336 -0.117,-0.586 -0.074,-0.762 0.027,-0.191 0.152,-0.375 0.355,-0.594 0.211,-0.207 0.891,-0.609 2.028,-1.222 l -0.782,-1.743 c -1.265,0.672 -2.574,1.325 -3.941,1.938 -1.781,0.785 -3.219,1.379 -4.312,1.754" /><path
         id="path86"
         style="fill:#bb811b;fill-opacity:1;fill-rule:nonzero;stroke:none"
         d="m 253.879,149.371 0.801,1.692 5.058,-2.563 7.813,-3.473 c 1.515,-0.718 2.621,-1.464 3.32,-2.242 0.711,-0.785 1.145,-1.801 1.317,-3.055 0.171,-1.265 -0.102,-2.667 -0.825,-4.207 -0.722,-1.531 -1.703,-2.816 -2.925,-3.839 -1.235,-1.032 -2.692,-1.668 -4.375,-1.907 -1.688,-0.238 -3.262,-0.011 -4.731,0.68 -0.367,0.18 -0.723,0.371 -1.047,0.574 -0.324,0.215 -0.644,0.457 -0.949,0.715 0.07,0.434 0.082,1.012 0.066,1.742 l 0.571,0.278 c 0.207,-0.223 0.418,-0.399 0.625,-0.551 0.195,-0.152 0.386,-0.277 0.578,-0.36 1.113,-0.539 2.265,-0.507 3.426,0.083 1.168,0.578 2.164,1.765 3.003,3.542 0.883,1.864 1.168,3.442 0.852,4.739 -0.324,1.293 -1.164,2.261 -2.527,2.906 -0.649,0.305 -1.407,0.566 -2.278,0.758 -0.464,-0.824 -1.089,-2.043 -1.863,-3.66 l -1.941,-3.965 -3.645,-7.719 c -0.898,-1.894 -1.797,-3.879 -2.699,-5.941 -0.531,-1.2 -0.82,-1.965 -0.875,-2.332 -0.012,-0.149 0,-0.313 0.07,-0.461 0.055,-0.153 0.219,-0.325 0.477,-0.52 l 2.238,-1.273 -0.84,-1.797 c -2.914,1.488 -5.113,2.582 -6.597,3.293 -1.641,0.773 -3.227,1.469 -4.75,2.074 l 0.839,1.789 c 1.289,-0.578 2.149,-0.848 2.579,-0.801 0.136,0.028 0.273,0.078 0.39,0.192 0.172,0.152 0.465,0.621 0.895,1.398 1.156,2.11 2.355,4.5 3.617,7.156 l 3.394,7.196 1.719,3.859 c 0.762,1.656 1.215,2.688 1.371,3.109 0.172,0.422 0.258,0.743 0.262,0.958 0.012,0.128 -0.027,0.253 -0.105,0.39 -0.075,0.129 -0.231,0.309 -0.485,0.504 l -1.824,1.039" /><path
         id="path88"
         style="fill:#bb811b;fill-opacity:1;fill-rule:nonzero;stroke:none"
         d="m 274.863,139.445 0.774,1.676 c 0.273,-0.121 1.176,-0.582 2.734,-1.367 0.762,-0.387 1.859,-0.914 3.285,-1.563 1.219,-0.578 2.27,-1.015 3.168,-1.351 1.469,-0.594 2.676,-1.094 3.617,-1.531 1.817,-0.836 3.114,-1.61 3.879,-2.336 0.758,-0.731 1.235,-1.719 1.43,-2.985 0.195,-1.261 -0.035,-2.59 -0.672,-3.984 -0.758,-1.645 -1.89,-2.945 -3.371,-3.902 -1.496,-0.957 -3.328,-1.411 -5.504,-1.375 0.012,-0.739 0.055,-1.508 0.137,-2.317 0.07,-0.812 0.121,-1.297 0.121,-1.453 0.004,-0.168 0.008,-0.332 0.023,-0.484 L 285,110.5 c 0.141,-1.59 0.211,-2.445 0.227,-2.562 0.257,-1.758 0.418,-2.793 0.5,-3.133 0.086,-0.328 0.203,-0.594 0.343,-0.77 0.145,-0.183 0.477,-0.402 1.024,-0.668 l -0.824,-1.801 c -1.758,0.872 -3.051,1.493 -3.848,1.868 -0.918,0.425 -1.859,0.824 -2.801,1.187 0.082,0.328 0.121,0.781 0.121,1.359 l -0.394,8.926 c -0.118,2.563 -0.282,4.617 -0.481,6.141 -0.086,0.777 -0.242,1.383 -0.457,1.848 l 0.508,0.589 c 1.367,-0.699 2.492,-1.007 3.371,-0.953 0.891,0.071 1.813,0.5 2.754,1.27 0.953,0.781 1.711,1.793 2.285,3.043 0.574,1.258 0.809,2.422 0.684,3.484 -0.137,1.067 -0.496,1.945 -1.102,2.617 -0.394,0.422 -1.207,0.926 -2.465,1.5 -0.562,0.258 -1.132,0.461 -1.718,0.598 -0.27,-0.469 -0.809,-1.57 -1.637,-3.262 -1.848,-3.828 -3.063,-6.39 -3.664,-7.695 -0.938,-2.047 -1.922,-4.234 -2.942,-6.539 -1.25,-2.832 -1.945,-4.449 -2.101,-4.84 -0.317,-0.777 -0.485,-1.305 -0.496,-1.582 0,-0.133 0.027,-0.262 0.097,-0.398 0.063,-0.141 0.188,-0.286 0.399,-0.446 0.207,-0.16 0.859,-0.515 1.965,-1.051 l -0.828,-1.804 c -1.938,1.008 -3.918,1.98 -5.95,2.91 -1.808,0.828 -3.507,1.551 -5.093,2.16 l 0.828,1.805 c 1.343,-0.555 2.164,-0.832 2.453,-0.848 0.152,-0.031 0.289,0 0.39,0.067 0.106,0.058 0.254,0.222 0.415,0.5 0.328,0.5 0.753,1.281 1.292,2.339 l 2.879,5.907 3.489,7.601 1.902,4.36 c 0.762,1.714 1.164,2.769 1.203,3.168 0.016,0.175 -0.019,0.332 -0.098,0.468 -0.203,0.293 -0.996,0.821 -2.367,1.582" /><path
         id="path90"
         style="fill:#bb811b;fill-opacity:1;fill-rule:nonzero;stroke:none"
         d="m 311.523,124.965 -0.785,-1.813 c -1.207,0.473 -1.933,0.735 -2.179,0.762 -0.258,0.043 -0.442,0.039 -0.579,-0.016 -0.136,-0.046 -0.25,-0.136 -0.343,-0.253 -0.18,-0.204 -0.446,-0.614 -0.762,-1.27 -0.184,-0.34 -0.484,-1.012 -0.926,-1.992 -1.531,-3.367 -2.344,-5.184 -2.457,-5.445 l -3.629,-8.313 -1.586,-3.805 c -0.621,-1.418 -0.968,-2.363 -1.031,-2.8473 -0.035,-0.2071 -0.019,-0.3907 0.043,-0.543 0.066,-0.1484 0.211,-0.3164 0.422,-0.4805 0.203,-0.1679 0.887,-0.5195 2.035,-1.0469 l -0.789,-1.8085 c -1.867,0.9257 -3.883,1.8515 -6.051,2.8007 -1.879,0.8164 -3.574,1.5005 -5.101,2.0505 l 0.793,1.813 c 1.246,-0.469 1.968,-0.738 2.175,-0.778 0.266,-0.05 0.469,-0.042 0.594,0.016 0.133,0.055 0.235,0.141 0.309,0.258 0.101,0.152 0.437,0.777 0.992,1.875 0.805,1.617 1.523,3.113 2.137,4.519 l 3.754,8.629 c 1.191,2.739 1.949,4.508 2.277,5.305 0.687,1.777 1.102,2.898 1.211,3.371 0.043,0.192 0.043,0.36 0.008,0.496 -0.032,0.125 -0.141,0.27 -0.313,0.414 -0.176,0.157 -0.898,0.528 -2.14,1.145 l 0.785,1.808 c 1.433,-0.738 3.105,-1.515 5.008,-2.347 2.144,-0.938 4.179,-1.77 6.128,-2.504" /><path
         id="path92"
         style="fill:#bb811b;fill-opacity:1;fill-rule:nonzero;stroke:none"
         d="m 301.66,94.6602 0.699,1.7929 c 1.383,-0.414 2.227,-0.6015 2.52,-0.5898 0.164,0 0.312,0.0547 0.449,0.1562 0.172,0.1407 0.352,0.3828 0.516,0.7227 0.398,0.7656 1.144,2.4805 2.246,5.1408 0.543,1.289 1.433,3.519 2.664,6.703 1.094,2.84 2.051,5.367 2.871,7.57 0.805,2.199 1.234,3.535 1.277,4.004 0.024,0.207 0.016,0.391 -0.047,0.539 -0.054,0.141 -0.226,0.293 -0.484,0.461 -0.726,0.457 -1.402,0.828 -2.027,1.098 l 0.695,1.785 c 2.414,-1.047 4.086,-1.75 5.012,-2.105 1.219,-0.481 2.476,-0.907 3.758,-1.29 l -0.047,-4.765 0.031,-3.641 0.332,-15.9607 c 2.285,2.2812 4.023,4.0737 5.23,5.3667 l 4.614,4.899 c 2.558,2.738 4.129,4.426 4.715,5.062 0.582,0.633 1.281,1.454 2.086,2.465 1.527,-0.707 2.519,-1.144 2.949,-1.312 l 5.39,-1.922 -0.691,-1.781 -0.25,0.105 c -1.211,0.477 -2.047,0.609 -2.512,0.395 -0.453,-0.219 -0.867,-0.817 -1.25,-1.797 -0.453,-1.157 -0.793,-2.035 -1.039,-2.633 l -2.359,-5.879 -2.86,-7.3672 c -0.687,-1.793 -1.089,-2.8398 -1.195,-3.1562 -0.598,-1.8203 -0.933,-2.9375 -1.015,-3.3633 -0.04,-0.2227 -0.036,-0.4024 0.011,-0.5547 0.051,-0.1523 0.153,-0.3086 0.305,-0.4336 0.152,-0.1406 0.879,-0.5117 2.168,-1.125 l -0.688,-1.7812 -5.652,2.3554 -5.625,2.0235 0.691,1.7734 c 1.497,-0.5078 2.372,-0.7383 2.645,-0.6719 0.258,0.0742 0.531,0.3399 0.824,0.8203 0.293,0.4922 1.008,2.2032 2.156,5.1602 l 5.918,15.2813 -7.949,-8.2383 -3.883,-4.1211 c -1.015,-1.086 -2.484,-2.6719 -4.379,-4.75 -1.164,-1.2539 -2.085,-2.2774 -2.769,-3.0664 l -1.215,0.4804 c 0.027,1.336 0.031,3.1914 0.02,5.5391 -0.028,4.0351 -0.071,7.0503 -0.11,9.0433 l -0.328,13.097 -3.996,-10.308 c -0.664,-1.715 -1.445,-3.77 -2.316,-6.1643 -0.875,-2.3868 -1.352,-3.7383 -1.426,-4.0743 -0.082,-0.3437 -0.086,-0.5976 -0.039,-0.7734 0.039,-0.1914 0.179,-0.3594 0.402,-0.5664 0.203,-0.1992 0.906,-0.5742 2.078,-1.1211 l -0.691,-1.7852 c -1.301,0.6133 -2.637,1.1993 -4.035,1.7383 -1.817,0.6992 -3.285,1.211 -4.395,1.5196" /><path
         id="path94"
         style="fill:#bb811b;fill-opacity:1;fill-rule:nonzero;stroke:none"
         d="m 347.984,108.645 0.536,1.796 5.925,-1.933 2.485,-0.692 2.5,-0.664 0.672,-0.172 -0.528,-1.792 c -1.32,0.39 -2.195,0.507 -2.629,0.335 -0.222,-0.07 -0.422,-0.285 -0.597,-0.632 -0.438,-0.84 -1.114,-2.789 -2.016,-5.8168 l -1.496,-5.0039 -0.734,-2.5351 c -0.782,-2.6329 -1.247,-4.2618 -1.383,-4.9024 -0.297,-1.3867 -0.336,-2.5547 -0.117,-3.5195 0.222,-0.9688 0.738,-1.8477 1.539,-2.6445 0.804,-0.8008 1.945,-1.4219 3.429,-1.8633 1.696,-0.5078 3.153,-0.5703 4.371,-0.1836 1.207,0.3789 2.188,1.0547 2.95,2.0195 0.754,0.9609 1.593,2.9805 2.5,6.0391 l 1.308,4.4062 c 1.137,3.793 1.836,6.1094 2.071,6.9492 0.492,1.8204 0.742,2.9371 0.722,3.3591 -0.019,0.258 -0.121,0.469 -0.269,0.641 -0.332,0.363 -1.172,0.769 -2.52,1.219 l 0.539,1.797 c 2.188,-0.762 3.481,-1.207 3.895,-1.329 0.113,-0.039 0.273,-0.082 0.504,-0.132 l 4.105,-1.082 -0.527,-1.797 c -1.141,0.343 -1.883,0.441 -2.239,0.316 -0.191,-0.066 -0.371,-0.242 -0.554,-0.551 -0.196,-0.2887 -0.727,-1.7145 -1.582,-4.2848 -0.86,-2.5586 -1.508,-4.5899 -1.953,-6.0859 l -1.508,-5.0704 c -0.387,-1.2968 -0.879,-2.6132 -1.442,-3.9453 -0.57,-1.332 -1.25,-2.4179 -2.023,-3.25 -0.773,-0.8398 -1.719,-1.5156 -2.84,-2.039 -1.105,-0.5313 -2.336,-0.8203 -3.664,-0.8516 -1.328,-0.0469 -2.793,0.1719 -4.387,0.6406 -1.859,0.5586 -3.504,1.3711 -4.941,2.4453 -1.043,0.7852 -1.836,1.6485 -2.359,2.5977 -0.532,0.9453 -0.852,1.9258 -0.969,2.9492 -0.129,1.0078 -0.113,1.9531 0.051,2.8125 0.097,0.5274 0.488,1.9375 1.164,4.207 l 1.257,4.1407 1.629,5.48 c 0.61,2.012 1.121,3.829 1.536,5.469 0.152,0.641 0.222,1.117 0.191,1.434 -0.016,0.179 -0.102,0.418 -0.293,0.711 l -2.309,1.008" /><path
         id="path96"
         style="fill:#bb811b;fill-opacity:1;fill-rule:nonzero;stroke:none"
         d="m 370.43,70.9414 0.347,1.875 c 1.442,-0.1484 2.301,-0.1797 2.594,-0.1133 0.156,0.0274 0.285,0.1133 0.414,0.2383 0.137,0.1719 0.27,0.4414 0.371,0.8086 0.254,0.8281 0.668,2.6445 1.25,5.4609 0.289,1.3672 0.75,3.7305 1.367,7.0821 0.563,2.9883 1.032,5.6523 1.422,7.9687 0.395,2.3164 0.567,3.711 0.528,4.168 -0.016,0.2266 -0.059,0.3945 -0.153,0.5273 -0.09,0.1289 -0.273,0.2539 -0.562,0.3633 -0.801,0.3164 -1.528,0.5547 -2.188,0.7067 l 0.348,1.883 c 2.562,-0.59 4.336,-0.965 5.32,-1.148 1.285,-0.239 2.598,-0.434 3.918,-0.571 l 0.844,-4.691 0.699,-3.5547 3.297,-15.6406 c 1.809,2.6719 3.195,4.7578 4.133,6.2422 l 3.629,5.6679 c 2.008,3.1758 3.234,5.1172 3.695,5.8555 0.457,0.7383 0.988,1.668 1.598,2.8008 1.633,-0.4023 2.676,-0.6523 3.14,-0.7344 l 5.653,-0.8906 -0.34,-1.8828 -0.274,0.0547 c -1.281,0.2539 -2.128,0.2226 -2.535,-0.0664 -0.41,-0.3047 -0.718,-0.9688 -0.902,-2 -0.227,-1.2266 -0.41,-2.1563 -0.531,-2.7891 l -1.231,-6.207 -1.453,-7.7657 c -0.34,-1.8906 -0.539,-3.0039 -0.586,-3.3281 -0.254,-1.8867 -0.375,-3.0625 -0.375,-3.5039 0,-0.2148 0.039,-0.3906 0.11,-0.5351 0.086,-0.1446 0.203,-0.2657 0.39,-0.3633 0.176,-0.1133 0.957,-0.3477 2.332,-0.7031 l -0.347,-1.8868 -5.985,1.2774 -5.914,0.9297 0.356,1.8867 c 1.558,-0.2305 2.476,-0.293 2.726,-0.1758 0.25,0.1211 0.473,0.4336 0.664,0.9688 0.192,0.5234 0.574,2.3476 1.156,5.4609 L 402.34,90.7344 396.051,81.1602 393,76.3906 c -0.801,-1.2617 -1.934,-3.0859 -3.426,-5.4804 -0.902,-1.4493 -1.613,-2.6172 -2.148,-3.5157 l -1.281,0.2305 c -0.223,1.3281 -0.555,3.1445 -1.012,5.4531 -0.774,3.9727 -1.367,6.9258 -1.778,8.8789 l -2.75,12.8086 -2.015,-10.8711 c -0.332,-1.8164 -0.707,-3.9804 -1.133,-6.4882 -0.414,-2.5079 -0.641,-3.9336 -0.648,-4.2774 -0.016,-0.3437 0.019,-0.6016 0.105,-0.7617 0.078,-0.168 0.238,-0.3281 0.492,-0.4805 0.25,-0.1562 1.008,-0.3984 2.258,-0.7109 l -0.355,-1.8867 c -1.383,0.3672 -2.809,0.6757 -4.278,0.9531 -1.929,0.3516 -3.453,0.582 -4.601,0.6992" /><path
         id="path98"
         style="fill:#bb811b;fill-opacity:1;fill-rule:nonzero;stroke:none"
         d="m 447.25,66.8789 -0.918,-2.2617 c -1.605,-0.9609 -3.039,-1.6211 -4.32,-1.9688 -1.278,-0.3515 -2.871,-0.5117 -4.766,-0.4765 -2.699,0.0429 -5.086,0.582 -7.152,1.6133 -1.621,0.8437 -2.989,1.9414 -4.102,3.289 -1.125,1.3555 -1.969,2.8164 -2.554,4.3789 -0.899,2.3711 -1.325,4.9414 -1.278,7.6953 0.07,4.7383 1.508,8.5743 4.305,11.5235 2.793,2.9531 6.695,4.3945 11.703,4.3125 1.719,-0.0196 3.277,-0.1953 4.641,-0.5196 1.363,-0.3203 2.945,-0.8789 4.746,-1.6679 l 0.097,-0.293 c -0.226,-0.707 -0.386,-1.5859 -0.527,-2.6523 -0.211,-1.6953 -0.363,-3.2578 -0.43,-4.7032 l -1.5,0.0274 c 0,1.6445 -0.039,2.9648 -0.121,3.957 -0.844,1.0703 -1.781,1.8672 -2.847,2.4024 -1.059,0.5273 -2.418,0.8164 -4.079,0.8476 -2.996,0.0391 -5.41,-1.0312 -7.246,-3.2383 -1.836,-2.207 -2.773,-5.2968 -2.836,-9.2929 -0.035,-2.418 0.231,-4.5313 0.813,-6.3321 0.578,-1.8164 1.351,-3.3203 2.348,-4.5156 0.992,-1.1953 1.988,-2.0625 3.003,-2.6172 1.375,-0.7461 3.055,-1.1328 5.04,-1.1679 1.3,-0.0118 2.531,0.1406 3.695,0.4687 1.168,0.3281 2.441,0.8984 3.816,1.7109 l 0.469,-0.5195" /><path
         id="path100"
         style="fill:#bb811b;fill-opacity:1;fill-rule:nonzero;stroke:none"
         d="m 455.324,80.2656 c 0.395,-3.4804 1.125,-6.3125 2.192,-8.4843 1.074,-2.1875 2.304,-3.6797 3.675,-4.4766 1.372,-0.7969 2.922,-1.0938 4.645,-0.9024 1.602,0.1915 2.984,0.7969 4.141,1.836 1.156,1.0469 1.968,2.6719 2.441,4.8906 0.473,2.207 0.543,4.8399 0.195,7.8906 -0.25,2.0782 -0.648,3.9727 -1.234,5.6641 -0.586,1.6797 -1.309,3.0977 -2.176,4.2266 -0.863,1.1328 -1.816,1.9648 -2.875,2.4961 -1.051,0.5312 -2.387,0.7031 -4.023,0.5273 -1.836,-0.2148 -3.364,-0.9102 -4.535,-2.0859 -1.188,-1.168 -1.965,-2.7891 -2.321,-4.8516 -0.367,-2.0664 -0.406,-4.3086 -0.125,-6.7305 z m -5.703,-1.9961 c -0.324,2.7305 -0.234,5.1485 0.238,7.2539 0.465,2.1055 1.278,3.9414 2.422,5.5079 1.149,1.5703 2.446,2.75 3.907,3.5507 1.875,1.0196 3.972,1.6641 6.296,1.9297 2.305,0.2578 4.442,0.1133 6.403,-0.4336 1.465,-0.4179 2.789,-1.1172 3.988,-2.0898 1.188,-0.9727 2.137,-2.0078 2.824,-3.0977 0.692,-1.0742 1.25,-2.289 1.696,-3.625 0.441,-1.3437 0.761,-2.8398 0.941,-4.4961 0.328,-2.8047 0.211,-5.4531 -0.336,-7.9531 -0.41,-1.8594 -1.121,-3.5508 -2.129,-5.0664 -1.016,-1.5234 -2.234,-2.7383 -3.644,-3.6523 -1.934,-1.2383 -4.235,-2.0118 -6.86,-2.3047 -2.851,-0.3242 -5.371,0 -7.558,0.9843 -2.188,0.9883 -4,2.5899 -5.434,4.8282 -1.437,2.2383 -2.359,5.1289 -2.754,8.664" /><path
         id="path102"
         style="fill:#bb811b;fill-opacity:1;fill-rule:nonzero;stroke:none"
         d="m 504.797,95.1094 -1.496,-0.3711 c -0.106,0.4648 -0.297,1.164 -0.582,2.0625 -0.188,0.6367 -0.383,1.168 -0.578,1.5898 -0.411,0.3633 -0.848,0.6407 -1.266,0.8321 -0.969,0.4375 -2.023,0.7265 -3.156,0.8283 -1.145,0.101 -2.371,-0.008 -3.703,-0.3283 -3.094,-0.7657 -5.301,-2.4922 -6.61,-5.2071 -1.308,-2.7265 -1.476,-6.0508 -0.508,-10 1.051,-4.3242 2.883,-7.5039 5.461,-9.5703 2.586,-2.0703 5.301,-2.7539 8.149,-2.0547 0.824,0.1992 1.621,0.5039 2.347,0.9024 0.739,0.3906 1.434,0.8867 2.098,1.4609 -0.066,0.4024 -0.215,1.1719 -0.476,2.3008 -0.239,1.1289 -0.399,1.8047 -0.457,2.043 -0.348,1.4023 -0.586,2.2148 -0.758,2.4531 -0.114,0.1601 -0.309,0.2422 -0.59,0.2461 -0.465,0.0469 -1.684,-0.1055 -3.633,-0.4492 l -0.434,1.7773 5.579,1.2695 5.578,1.4571 0.34,-1.4414 c -0.664,-0.3477 -1.075,-0.7071 -1.235,-1.0625 -0.066,-0.1719 -0.039,-0.5977 0.094,-1.2618 0.352,-1.6836 0.621,-2.8945 0.789,-3.6289 0.27,-1.1093 0.605,-2.2304 1.008,-3.3711 -2.063,-1.5546 -3.899,-2.7461 -5.512,-3.5703 -1.621,-0.8359 -3.289,-1.4609 -4.996,-1.875 -2.785,-0.6836 -5.383,-0.7343 -7.812,-0.1562 -1.684,0.4219 -3.208,1.125 -4.583,2.1054 -1.375,0.9688 -2.503,2.1055 -3.429,3.3946 -1.406,2.0039 -2.449,4.3633 -3.121,7.0781 -0.559,2.2891 -0.762,4.3555 -0.602,6.2031 0.152,1.8477 0.598,3.5274 1.313,5.0586 0.718,1.5313 1.629,2.8477 2.734,3.9688 1.125,1.1172 2.355,2.0117 3.699,2.703 1.34,0.699 2.879,1.254 4.594,1.676 2.098,0.516 4.117,0.766 6.043,0.766 1.922,-0.016 3.465,-0.161 4.605,-0.45 l 0.258,-0.386 c 0.016,-1.352 0.293,-3.684 0.848,-6.9926" /><path
         id="path104"
         style="fill:#bb811b;fill-opacity:1;fill-rule:nonzero;stroke:none"
         d="m 516.348,77.1523 c 1.386,0.5938 2.172,0.9649 2.347,1.1094 0.11,0.1016 0.192,0.2305 0.243,0.3946 0.039,0.1601 0.019,0.4492 -0.059,0.8671 -0.125,0.5586 -0.52,1.8907 -1.152,3.9844 -0.379,1.1914 -0.907,2.7305 -1.59,4.6016 l -2.442,6.8008 -2.316,6.1288 c -0.387,1.024 -0.66,1.691 -0.832,1.973 -0.172,0.293 -0.348,0.492 -0.508,0.593 -0.164,0.11 -0.394,0.161 -0.691,0.149 -0.289,-0.012 -1.082,-0.195 -2.383,-0.555 l -0.645,1.793 c 1.555,0.442 2.688,0.801 3.41,1.055 l 2.59,1.016 1.629,0.667 c 3.844,-2.91 8.426,-6.199 13.723,-9.8941 3.816,-2.6562 6.922,-4.6953 9.32,-6.1132 l -1.762,4.8945 c -2.738,7.5938 -4.429,12.0388 -5.042,13.3278 -0.235,0.508 -0.477,0.805 -0.7,0.899 -0.363,0.156 -1.351,-0.039 -2.961,-0.582 l -0.644,1.777 c 1.5,0.43 2.871,0.859 4.097,1.305 1.184,0.429 2.7,1.023 4.528,1.801 l 0.648,-1.778 c -1.449,-0.57 -2.281,-1.008 -2.476,-1.328 -0.067,-0.094 -0.102,-0.234 -0.078,-0.391 0.07,-0.761 0.535,-2.418 1.398,-4.957 0.844,-2.539 1.488,-4.414 1.918,-5.613 3.383,-9.3866 5.52,-15.0585 6.406,-17.0077 l -0.164,-0.2734 c -1.086,-0.1641 -2.18,-0.3555 -3.289,-0.5664 -5.707,3.707 -13.965,9.375 -24.766,17.0155 l 3.805,-10.5351 c 0.785,-2.1953 1.653,-4.4648 2.59,-6.8046 0.637,-1.6211 1.066,-2.586 1.293,-2.9063 0.105,-0.1523 0.242,-0.2656 0.395,-0.3242 0.156,-0.0625 0.375,-0.0703 0.683,-0.0078 0.817,0.164 1.406,0.3164 1.774,0.4531 0.074,0.0234 0.179,0.0703 0.347,0.1445 l 0.613,-1.7187 c -2.292,-0.7813 -3.593,-1.2266 -3.91,-1.3321 -1.168,-0.4296 -2.734,-1.0429 -4.699,-1.8671 l -0.648,1.8046" /><path
         id="path106"
         style="fill:#bb811b;fill-opacity:1;fill-rule:nonzero;stroke:none"
         d="m 545.219,103.871 c 1.414,-3.199 2.969,-5.6835 4.644,-7.4452 1.68,-1.7656 3.282,-2.8203 4.836,-3.1641 1.547,-0.3594 3.117,-0.1758 4.707,0.5313 1.465,0.6484 2.598,1.6484 3.399,2.9765 0.789,1.3438 1.078,3.1407 0.871,5.3865 -0.207,2.262 -0.942,4.801 -2.176,7.594 -0.855,1.93 -1.82,3.602 -2.883,5.039 -1.054,1.434 -2.168,2.566 -3.328,3.387 -1.156,0.836 -2.324,1.336 -3.492,1.523 -1.16,0.196 -2.488,-0.039 -3.984,-0.703 -1.704,-0.758 -2.95,-1.867 -3.727,-3.34 -0.785,-1.465 -1.023,-3.242 -0.754,-5.328 0.262,-2.078 0.906,-4.23 1.887,-6.457 z m -4.852,-3.609 c -1.105,2.508 -1.762,4.84 -1.937,6.988 -0.184,2.156 0.039,4.152 0.668,5.988 0.621,1.844 1.511,3.36 2.672,4.563 1.476,1.535 3.293,2.762 5.421,3.707 2.125,0.937 4.211,1.445 6.243,1.508 1.523,0.035 3.004,-0.235 4.433,-0.805 1.434,-0.578 2.645,-1.277 3.617,-2.102 0.981,-0.836 1.887,-1.82 2.711,-2.972 0.821,-1.145 1.578,-2.481 2.235,-4.004 1.152,-2.578 1.828,-5.137 2.058,-7.68 0.164,-1.894 0,-3.723 -0.515,-5.4686 -0.516,-1.7578 -1.297,-3.2813 -2.383,-4.5821 -1.473,-1.7578 -3.43,-3.164 -5.86,-4.2539 -2.621,-1.1601 -5.128,-1.5976 -7.507,-1.3125 -2.379,0.2774 -4.602,1.2735 -6.633,2.9883 -2.035,1.7031 -3.777,4.1797 -5.223,7.4378" /><path
         id="path108"
         style="fill:#bb811b;fill-opacity:1;fill-rule:nonzero;stroke:none"
         d="m 581.457,128.074 -1.445,-0.707 c -0.789,1.547 -1.387,2.617 -1.793,3.227 -0.645,0.414 -1.516,0.633 -2.621,0.66 -1.102,0.039 -2.196,-0.223 -3.274,-0.738 -1.558,-0.766 -2.539,-1.828 -2.933,-3.164 -0.403,-1.348 -0.297,-2.633 0.312,-3.883 0.457,-0.887 0.934,-1.543 1.442,-1.981 0.515,-0.433 1.074,-0.703 1.671,-0.808 0.606,-0.106 1.414,-0.078 2.414,0.082 0.743,0.16 1.766,0.41 3.083,0.75 1.3,0.34 2.14,0.547 2.546,0.625 1.067,0.172 1.977,0.195 2.75,0.082 0.77,-0.117 1.446,-0.352 2.047,-0.707 0.574,-0.352 1.184,-0.864 1.782,-1.559 0.605,-0.68 1.152,-1.508 1.636,-2.5 0.844,-1.715 1.289,-3.383 1.313,-4.988 0.027,-1.219 -0.168,-2.418 -0.578,-3.641 -0.418,-1.211 -0.95,-2.226 -1.61,-3.054 -1.058,-1.325 -2.543,-2.457 -4.472,-3.399 -1.407,-0.691 -2.739,-1.156 -3.997,-1.383 -1.242,-0.226 -2.714,-0.289 -4.402,-0.183 -0.402,1.718 -1.363,4.144 -2.894,7.289 l 1.433,0.707 c 0.465,-0.985 1.125,-2.16 1.985,-3.535 0.839,-0.629 1.945,-1 3.312,-1.114 1.367,-0.117 2.672,0.129 3.918,0.743 1.09,0.527 1.953,1.226 2.578,2.101 0.641,0.871 0.942,1.805 0.942,2.785 -0.008,0.985 -0.258,1.985 -0.75,2.996 -0.426,0.848 -0.914,1.504 -1.473,1.993 -0.57,0.472 -1.234,0.75 -1.981,0.828 -0.757,0.082 -1.949,-0.024 -3.589,-0.34 -2.321,-0.508 -3.868,-0.809 -4.629,-0.895 -1.16,-0.136 -2.203,-0.019 -3.125,0.34 -0.922,0.379 -1.762,0.953 -2.535,1.746 -0.747,0.785 -1.391,1.711 -1.918,2.801 -0.743,1.512 -1.157,3.027 -1.247,4.566 -0.089,1.543 0.137,2.872 0.68,4.004 0.531,1.137 1.281,2.129 2.25,2.985 0.969,0.843 2.024,1.547 3.195,2.133 1.211,0.589 2.458,1.035 3.719,1.343 1.262,0.309 2.434,0.414 3.512,0.348 l 0.371,-0.418 c 0.273,-0.957 0.57,-1.867 0.918,-2.742 0.324,-0.879 0.816,-2.008 1.457,-3.395" /><path
         id="path110"
         style="fill:#bb811b;fill-opacity:1;fill-rule:nonzero;stroke:none"
         d="m 616.949,124.52 0.235,-2.426 c -0.969,-1.61 -1.938,-2.864 -2.907,-3.766 -0.972,-0.902 -2.3,-1.781 -3.992,-2.648 -2.41,-1.215 -4.773,-1.856 -7.082,-1.895 -1.824,-0.012 -3.539,0.324 -5.164,0.988 -1.617,0.684 -3.043,1.575 -4.293,2.696 -1.898,1.679 -3.48,3.75 -4.73,6.211 -2.137,4.222 -2.657,8.293 -1.559,12.203 1.098,3.914 3.883,6.996 8.344,9.269 1.543,0.782 2.988,1.344 4.351,1.707 1.356,0.352 3.024,0.59 4.981,0.731 l 0.222,-0.219 c 0.137,-0.719 0.387,-1.582 0.774,-2.594 0.594,-1.586 1.191,-3.043 1.805,-4.363 l -1.329,-0.664 c -0.785,1.461 -1.433,2.609 -1.972,3.445 -1.231,0.547 -2.445,0.813 -3.625,0.797 -1.184,-0.027 -2.52,-0.41 -4,-1.168 -2.672,-1.347 -4.309,-3.422 -4.903,-6.234 -0.597,-2.793 0,-5.973 1.817,-9.535 1.098,-2.16 2.308,-3.903 3.676,-5.231 1.351,-1.328 2.738,-2.301 4.172,-2.894 1.433,-0.602 2.726,-0.907 3.878,-0.914 1.575,-0.016 3.239,0.418 4.997,1.32 1.168,0.578 2.187,1.297 3.07,2.129 0.871,0.828 1.726,1.926 2.566,3.293 l 0.668,-0.238" /><path
         id="path112"
         style="fill:#bb811b;fill-opacity:1;fill-rule:nonzero;stroke:none"
         d="m 620.695,121.883 -0.543,1.094 c 0.504,0.703 0.864,1.371 1.098,1.988 -0.215,0.609 -0.605,1.547 -1.18,2.832 -1.062,2.355 -1.851,4.066 -2.371,5.117 l -4.5,9.07 c -0.187,0.352 -0.851,1.657 -2.015,3.907 -0.782,1.5 -1.317,2.398 -1.621,2.668 -0.125,0.101 -0.25,0.16 -0.399,0.168 -0.383,0.015 -1.273,-0.274 -2.648,-0.86 l -0.774,1.559 3.961,2.004 c 0.789,0.398 1.539,0.769 2.254,1.125 1.57,0.789 3.309,1.664 5.195,2.664 l 3.446,1.824 c 0.402,0.211 1.257,0.594 2.539,1.172 0.117,0.051 0.32,0.101 0.625,0.148 l 0.246,-0.195 1.125,-3.066 c 0.086,-0.211 0.504,-1.207 1.273,-2.989 l -1.347,-0.672 c -0.801,1.579 -1.348,2.528 -1.61,2.844 -0.136,0.164 -0.265,0.27 -0.402,0.309 -0.203,0.047 -0.719,-0.071 -1.52,-0.364 -1.211,-0.41 -2.351,-0.882 -3.441,-1.421 -1.012,-0.5 -2.02,-1.063 -3.035,-1.676 0.597,-1.617 1.488,-3.606 2.648,-5.965 L 619.77,141 c 0.816,0.316 1.64,0.691 2.48,1.113 0.262,0.117 1.199,0.614 2.793,1.481 0.621,0.308 0.957,0.551 1.027,0.687 0.067,0.129 0.075,0.309 0.035,0.539 -0.113,0.582 -0.468,1.473 -1.042,2.676 l 1.398,0.695 2.117,-4.476 2.274,-4.375 -1.387,-0.699 c -0.762,1.566 -1.32,2.492 -1.688,2.761 -0.277,0.196 -0.609,0.25 -1.004,0.141 -0.863,-0.258 -1.925,-0.68 -3.175,-1.305 -1.118,-0.554 -2.02,-1.054 -2.7,-1.515 l 4.204,-8.457 c 0.468,-0.946 0.89,-1.746 1.261,-2.411 0.965,0.372 2.086,0.868 3.348,1.497 1.238,0.601 2.352,1.218 3.348,1.832 0.996,0.613 1.57,1.058 1.722,1.351 0.059,0.094 0.067,0.262 0.043,0.485 -0.105,0.742 -0.504,2.078 -1.172,3.992 l 1.411,0.687 c 1.062,-2.785 2.031,-5.035 2.878,-6.758 l -0.089,-0.371 c -0.684,-0.465 -1.7,-1.015 -3.047,-1.691 l -2.793,-1.305 c -2.739,-1.297 -4.633,-2.199 -5.668,-2.719 -0.27,-0.132 -2.149,-1.121 -5.649,-2.972" /><path
         id="path114"
         style="fill:#bb811b;fill-opacity:1;fill-rule:nonzero;stroke:none"
         d="m 628.57,158.93 -0.761,1.672 c 0.269,0.125 1.214,0.519 2.832,1.171 0.785,0.332 1.902,0.817 3.328,1.461 1.219,0.559 2.254,1.063 3.097,1.508 1.407,0.738 2.579,1.324 3.524,1.746 1.812,0.825 3.254,1.297 4.293,1.403 1.058,0.101 2.113,-0.188 3.199,-0.871 1.074,-0.672 1.938,-1.715 2.563,-3.118 0.761,-1.652 1.007,-3.363 0.753,-5.109 -0.261,-1.75 -1.113,-3.434 -2.566,-5.047 0.574,-0.484 1.188,-0.953 1.848,-1.43 0.664,-0.468 1.05,-0.75 1.187,-0.859 0.125,-0.105 0.242,-0.203 0.371,-0.293 l 4.852,-3.516 c 1.293,-0.929 1.992,-1.433 2.094,-1.503 1.484,-0.961 2.382,-1.508 2.687,-1.665 0.317,-0.152 0.582,-0.238 0.809,-0.253 0.23,-0.016 0.617,0.101 1.179,0.332 l 0.821,-1.801 c -1.828,-0.758 -3.133,-1.317 -3.934,-1.68 -0.922,-0.422 -1.844,-0.871 -2.726,-1.34 -0.192,0.27 -0.508,0.598 -0.95,0.973 l -7.011,5.535 c -2.016,1.598 -3.661,2.82 -4.95,3.68 -0.644,0.422 -1.207,0.722 -1.695,0.859 l -0.117,0.762 c 1.422,0.582 2.387,1.223 2.926,1.937 0.535,0.707 0.812,1.68 0.84,2.911 0.031,1.226 -0.243,2.464 -0.809,3.714 -0.57,1.25 -1.301,2.188 -2.188,2.786 -0.878,0.605 -1.781,0.898 -2.687,0.886 -0.582,-0.015 -1.504,-0.308 -2.754,-0.883 -0.555,-0.257 -1.082,-0.562 -1.59,-0.914 0.192,-0.507 0.66,-1.629 1.406,-3.375 1.692,-3.89 2.832,-6.496 3.43,-7.8 0.922,-2.051 1.934,-4.219 3.012,-6.5 1.328,-2.797 2.09,-4.375 2.289,-4.75 0.379,-0.746 0.66,-1.215 0.871,-1.411 0.102,-0.089 0.211,-0.156 0.359,-0.191 0.137,-0.051 0.348,-0.051 0.598,0.016 0.262,0.047 0.957,0.312 2.078,0.781 l 0.828,-1.805 c -2.031,-0.804 -4.074,-1.664 -6.101,-2.586 -1.805,-0.824 -3.469,-1.64 -4.961,-2.441 l -0.824,1.812 c 1.289,0.657 2.046,1.086 2.242,1.293 0.133,0.102 0.199,0.219 0.211,0.348 0.027,0.125 -0.012,0.336 -0.11,0.633 -0.16,0.578 -0.468,1.414 -0.922,2.508 l -2.578,6.05 -3.457,7.614 -2.062,4.289 c -0.801,1.699 -1.332,2.695 -1.61,2.976 -0.117,0.129 -0.257,0.207 -0.414,0.231 -0.351,0.043 -1.265,-0.203 -2.75,-0.746" /><path
         id="path116"
         style="fill:#bb811b;fill-opacity:1;fill-rule:nonzero;stroke:none"
         d="m 665.391,142.996 -0.438,1.129 c 0.567,0.668 0.996,1.293 1.281,1.895 -0.148,0.621 -0.468,1.589 -0.925,2.929 -0.84,2.442 -1.465,4.203 -1.879,5.297 l -3.664,9.457 c -0.137,0.367 -0.672,1.727 -1.641,4.074 -0.641,1.571 -1.094,2.504 -1.367,2.809 -0.113,0.105 -0.235,0.176 -0.387,0.203 -0.391,0.039 -1.289,-0.16 -2.715,-0.609 l -0.625,1.605 4.129,1.641 c 0.82,0.328 1.606,0.633 2.363,0.922 1.622,0.629 3.43,1.347 5.411,2.168 l 3.593,1.5 c 0.43,0.164 1.301,0.472 2.637,0.922 0.117,0.05 0.32,0.082 0.629,0.105 l 0.238,-0.227 0.836,-3.156 c 0.067,-0.215 0.391,-1.242 0.981,-3.094 l -1.387,-0.539 c -0.668,1.649 -1.113,2.645 -1.336,2.985 -0.133,0.179 -0.262,0.293 -0.383,0.332 -0.215,0.074 -0.722,0 -1.551,-0.203 -1.246,-0.309 -2.429,-0.676 -3.55,-1.11 -1.067,-0.406 -2.114,-0.875 -3.188,-1.39 0.449,-1.676 1.152,-3.723 2.098,-6.184 l 1.679,-4.34 c 0.84,0.242 1.692,0.531 2.571,0.867 0.273,0.114 1.25,0.516 2.922,1.235 0.636,0.261 0.992,0.453 1.07,0.59 0.082,0.121 0.113,0.3 0.094,0.535 -0.071,0.586 -0.328,1.504 -0.782,2.758 l 1.45,0.562 1.691,-4.656 1.859,-4.567 -1.437,-0.55 c -0.613,1.617 -1.098,2.586 -1.434,2.89 -0.25,0.223 -0.578,0.301 -0.976,0.223 -0.891,-0.164 -1.977,-0.496 -3.278,-0.988 -1.171,-0.461 -2.113,-0.879 -2.835,-1.266 l 3.398,-8.816 c 0.391,-0.981 0.738,-1.821 1.043,-2.504 0.996,0.265 2.156,0.664 3.484,1.168 1.27,0.5 2.442,1.004 3.485,1.519 1.05,0.528 1.664,0.918 1.847,1.196 0.067,0.093 0.09,0.242 0.078,0.464 -0.039,0.766 -0.3,2.118 -0.796,4.086 l 1.464,0.567 c 0.817,-2.875 1.567,-5.207 2.254,-6.996 l -0.125,-0.364 c -0.722,-0.394 -1.781,-0.863 -3.195,-1.398 l -2.894,-1.043 c -2.856,-1.043 -4.821,-1.774 -5.887,-2.191 -0.289,-0.102 -2.258,-0.918 -5.91,-2.442" /><path
         id="path118"
         style="fill:#bb811b;fill-opacity:1;fill-rule:nonzero;stroke:none"
         d="m 687.73,182.688 -0.449,1.792 c 0.293,0.071 1.289,0.278 3.008,0.622 0.828,0.175 2.031,0.449 3.551,0.82 1.297,0.316 2.394,0.625 3.32,0.914 1.516,0.457 2.778,0.805 3.778,1.059 1.953,0.468 3.453,0.66 4.484,0.57 1.058,-0.094 2.039,-0.57 2.98,-1.445 0.934,-0.872 1.578,-2.051 1.946,-3.54 0.437,-1.761 0.371,-3.488 -0.219,-5.164 -0.574,-1.664 -1.727,-3.156 -3.449,-4.48 0.472,-0.582 0.992,-1.16 1.547,-1.742 0.562,-0.582 0.894,-0.934 1.003,-1.067 0.098,-0.125 0.208,-0.254 0.317,-0.367 l 4.125,-4.344 c 1.09,-1.156 1.672,-1.781 1.769,-1.867 1.282,-1.226 2.063,-1.926 2.332,-2.136 0.27,-0.208 0.52,-0.352 0.758,-0.395 0.215,-0.059 0.621,-0.027 1.211,0.105 l 0.465,-1.914 c -1.926,-0.414 -3.312,-0.722 -4.168,-0.929 -0.98,-0.25 -1.973,-0.508 -2.934,-0.817 -0.152,0.309 -0.398,0.692 -0.757,1.133 l -5.852,6.75 c -1.699,1.934 -3.078,3.453 -4.191,4.516 -0.551,0.558 -1.051,0.933 -1.504,1.16 l 0.031,0.781 c 1.504,0.305 2.586,0.762 3.231,1.356 0.656,0.601 1.113,1.504 1.378,2.703 0.247,1.211 0.219,2.465 -0.109,3.797 -0.332,1.343 -0.875,2.398 -1.641,3.156 -0.757,0.75 -1.589,1.211 -2.476,1.355 -0.586,0.106 -1.535,-0.023 -2.875,-0.34 -0.594,-0.156 -1.172,-0.359 -1.723,-0.613 0.098,-0.539 0.336,-1.722 0.75,-3.57 0.953,-4.145 1.59,-6.914 1.914,-8.297 0.543,-2.195 1.125,-4.508 1.766,-6.953 0.785,-2.992 1.238,-4.695 1.355,-5.09 0.25,-0.816 0.45,-1.332 0.602,-1.551 0.078,-0.101 0.184,-0.195 0.32,-0.254 0.133,-0.078 0.34,-0.109 0.586,-0.109 0.27,0.008 0.992,0.137 2.195,0.402 l 0.473,-1.925 c -2.14,-0.418 -4.301,-0.887 -6.465,-1.426 -1.945,-0.469 -3.707,-0.961 -5.343,-1.453 l -0.469,1.914 c 1.402,0.41 2.222,0.687 2.453,0.847 0.137,0.09 0.23,0.188 0.269,0.309 0.047,0.113 0.047,0.332 0.008,0.652 -0.047,0.586 -0.199,1.473 -0.433,2.629 l -1.43,6.426 -1.973,8.121 -1.23,4.59 c -0.465,1.824 -0.817,2.898 -1.024,3.226 -0.109,0.157 -0.226,0.254 -0.375,0.313 -0.328,0.102 -1.289,0.027 -2.836,-0.23" /><path
         id="path120"
         style="fill:#bb811b;fill-opacity:1;fill-rule:nonzero;stroke:none"
         d="m 721.078,160.055 -0.148,1.218 c 0.711,0.5 1.277,1.008 1.703,1.52 0,0.629 -0.059,1.652 -0.176,3.055 -0.211,2.582 -0.375,4.449 -0.512,5.609 l -1.211,10.059 c -0.05,0.386 -0.25,1.839 -0.597,4.351 -0.239,1.68 -0.449,2.699 -0.633,3.051 -0.078,0.152 -0.184,0.25 -0.32,0.305 -0.371,0.136 -1.297,0.16 -2.786,0.074 l -0.21,1.723 4.402,0.57 c 0.875,0.113 1.711,0.211 2.508,0.301 1.738,0.207 3.66,0.476 5.785,0.769 l 3.847,0.578 c 0.469,0.055 1.387,0.141 2.782,0.246 0.133,0.016 0.343,-0.004 0.64,-0.058 l 0.168,-0.274 0.028,-3.265 c 0.011,-0.227 0.078,-1.309 0.199,-3.242 l -1.477,-0.18 c -0.234,1.758 -0.425,2.832 -0.566,3.219 -0.078,0.207 -0.156,0.343 -0.281,0.421 -0.176,0.114 -0.696,0.176 -1.563,0.18 -1.258,0.012 -2.508,-0.055 -3.699,-0.199 -1.133,-0.133 -2.27,-0.332 -3.434,-0.574 0.032,-1.719 0.192,-3.879 0.508,-6.496 l 0.559,-4.621 c 0.871,0.027 1.777,0.093 2.703,0.21 0.293,0.04 1.34,0.192 3.137,0.469 0.691,0.098 1.082,0.196 1.191,0.297 0.105,0.109 0.176,0.27 0.215,0.504 0.09,0.594 0.062,1.543 -0.078,2.871 l 1.535,0.192 0.5,-4.926 0.691,-4.895 -1.535,-0.179 c -0.195,1.734 -0.437,2.785 -0.68,3.16 -0.187,0.277 -0.492,0.429 -0.89,0.457 -0.903,0.054 -2.051,0 -3.43,-0.164 -1.242,-0.145 -2.262,-0.321 -3.055,-0.536 l 1.129,-9.359 c 0.133,-1.055 0.258,-1.945 0.383,-2.691 1.039,0.015 2.254,0.113 3.653,0.273 1.378,0.172 2.628,0.371 3.769,0.617 1.16,0.25 1.844,0.489 2.082,0.703 0.078,0.075 0.149,0.215 0.195,0.43 0.153,0.746 0.223,2.133 0.235,4.16 l 1.554,0.192 c 0.082,-2.996 0.239,-5.438 0.469,-7.34 l -0.211,-0.317 c -0.804,-0.207 -1.953,-0.402 -3.453,-0.582 l -3.058,-0.277 c -3.02,-0.324 -5.098,-0.543 -6.243,-0.68 -0.3,-0.039 -2.418,-0.351 -6.324,-0.929" /><path
         id="path122"
         style="fill:#bb811b;fill-opacity:1;fill-rule:nonzero;stroke:none"
         d="m 742.824,192.406 0.039,1.844 c 0.285,0 1.309,-0.062 3.051,-0.164 0.856,-0.059 2.066,-0.106 3.641,-0.145 1.34,-0.023 2.48,-0.023 3.445,0.024 1.586,0.047 2.883,0.062 3.926,0.039 1.996,-0.047 3.488,-0.258 4.48,-0.613 0.992,-0.356 1.828,-1.082 2.512,-2.168 0.664,-1.078 0.988,-2.387 0.949,-3.914 -0.043,-1.825 -0.554,-3.461 -1.547,-4.938 -0.992,-1.469 -2.488,-2.601 -4.5,-3.433 0.305,-0.676 0.653,-1.375 1.039,-2.079 0.399,-0.711 0.625,-1.136 0.7,-1.289 0.066,-0.152 0.136,-0.293 0.203,-0.429 l 2.847,-5.282 c 0.762,-1.398 1.176,-2.152 1.235,-2.257 0.929,-1.504 1.496,-2.399 1.699,-2.672 0.211,-0.274 0.414,-0.473 0.625,-0.578 0.195,-0.102 0.598,-0.172 1.203,-0.2 l -0.051,-1.98 c -1.968,0.098 -3.382,0.164 -4.261,0.18 -1.028,0.031 -2.036,0.015 -3.047,-0.02 -0.055,0.328 -0.211,0.766 -0.426,1.301 l -3.922,8.031 c -1.125,2.313 -2.078,4.125 -2.859,5.441 -0.403,0.68 -0.778,1.18 -1.153,1.52 l 0.231,0.738 c 1.523,-0.093 2.683,0.059 3.48,0.473 0.782,0.41 1.453,1.164 2.016,2.262 0.562,1.09 0.855,2.32 0.891,3.687 0.027,1.383 -0.231,2.539 -0.77,3.473 -0.547,0.926 -1.219,1.586 -2.051,1.953 -0.515,0.246 -1.472,0.379 -2.859,0.414 -0.61,0.016 -1.215,-0.035 -1.813,-0.152 -0.047,-0.528 -0.117,-1.743 -0.195,-3.637 -0.18,-4.242 -0.277,-7.082 -0.309,-8.512 -0.058,-2.261 -0.085,-4.64 -0.105,-7.164 -0.023,-3.105 -0.023,-4.855 0,-5.277 0.008,-0.84 0.066,-1.391 0.164,-1.653 0.051,-0.121 0.129,-0.234 0.25,-0.332 0.109,-0.089 0.285,-0.179 0.543,-0.242 0.258,-0.074 0.992,-0.133 2.211,-0.191 l -0.039,-1.977 c -2.184,0.153 -4.379,0.254 -6.621,0.309 -1.988,0.043 -3.828,0.027 -5.535,-0.035 l 0.05,1.976 c 1.457,0.028 2.317,0.094 2.59,0.192 0.157,0.039 0.262,0.105 0.336,0.222 0.078,0.094 0.129,0.305 0.176,0.618 0.109,0.585 0.187,1.468 0.258,2.66 l 0.293,6.574 0.195,8.351 0.008,4.762 c 0.023,1.875 -0.027,3.004 -0.152,3.395 -0.059,0.16 -0.157,0.289 -0.274,0.379 -0.297,0.187 -1.23,0.363 -2.797,0.515" /><path
         id="path124"
         style="fill:#bb811b;fill-opacity:1;fill-rule:nonzero;stroke:none"
         d="m 771.441,191.535 0.43,1.828 6.031,-1.523 2.528,-0.508 2.539,-0.488 0.687,-0.133 -0.402,-1.824 c -1.348,0.304 -2.234,0.355 -2.649,0.156 -0.218,-0.086 -0.398,-0.32 -0.554,-0.68 -0.367,-0.879 -0.914,-2.851 -1.61,-5.949 l -1.14,-5.094 -0.563,-2.578 c -0.593,-2.679 -0.941,-4.34 -1.039,-4.976 -0.191,-1.403 -0.152,-2.582 0.137,-3.524 0.289,-0.949 0.855,-1.797 1.715,-2.527 0.863,-0.746 2.043,-1.281 3.547,-1.625 1.734,-0.387 3.199,-0.348 4.375,0.121 1.191,0.457 2.109,1.207 2.808,2.219 0.684,1.011 1.367,3.078 2.071,6.199 l 1,4.484 c 0.875,3.867 1.398,6.227 1.578,7.082 0.383,1.852 0.547,2.981 0.5,3.395 -0.039,0.25 -0.137,0.453 -0.332,0.625 -0.34,0.34 -1.207,0.687 -2.586,1.039 l 0.418,1.832 c 2.23,-0.617 3.558,-0.969 3.972,-1.063 0.114,-0.027 0.289,-0.05 0.52,-0.093 l 4.172,-0.797 -0.41,-1.824 c -1.153,0.261 -1.907,0.312 -2.254,0.164 -0.176,-0.082 -0.364,-0.285 -0.52,-0.59 -0.168,-0.309 -0.594,-1.774 -1.269,-4.391 -0.672,-2.613 -1.192,-4.687 -1.536,-6.211 l -1.148,-5.164 c -0.309,-1.312 -0.687,-2.66 -1.172,-4.027 -0.472,-1.367 -1.074,-2.5 -1.781,-3.383 -0.731,-0.883 -1.621,-1.633 -2.688,-2.234 -1.082,-0.61 -2.285,-0.969 -3.601,-1.11 -1.328,-0.129 -2.793,-0.015 -4.426,0.348 -1.891,0.422 -3.582,1.121 -5.098,2.09 -1.089,0.707 -1.937,1.515 -2.539,2.422 -0.589,0.918 -0.98,1.879 -1.172,2.875 -0.195,1.004 -0.234,1.949 -0.144,2.816 0.059,0.543 0.352,1.969 0.883,4.277 l 0.953,4.219 1.258,5.574 c 0.453,2.051 0.84,3.907 1.152,5.559 0.109,0.66 0.129,1.137 0.078,1.461 -0.019,0.172 -0.14,0.398 -0.34,0.676 l -2.379,0.855" /><path
         id="path126"
         style="fill:#bb811b;fill-opacity:1;fill-rule:nonzero;stroke:none"
         d="m 790.094,157.668 0.816,1.734 c 1.348,-0.511 2.18,-0.761 2.481,-0.765 0.156,-0.016 0.304,0.035 0.441,0.125 0.195,0.129 0.387,0.351 0.586,0.676 0.445,0.742 1.305,2.386 2.598,4.964 0.636,1.246 1.675,3.418 3.125,6.5 1.308,2.762 2.437,5.196 3.41,7.344 0.976,2.137 1.488,3.438 1.566,3.899 0.039,0.214 0.039,0.398 -0.008,0.543 -0.05,0.14 -0.195,0.312 -0.445,0.5 -0.699,0.5 -1.351,0.921 -1.945,1.234 l 0.82,1.738 c 2.336,-1.222 3.953,-2.043 4.856,-2.472 1.187,-0.555 2.398,-1.083 3.648,-1.547 l -0.383,-4.754 -0.234,-3.614 -0.805,-15.968 c 2.442,2.125 4.305,3.785 5.594,4.988 l 4.949,4.562 c 2.758,2.551 4.453,4.114 5.066,4.708 0.625,0.597 1.387,1.359 2.258,2.304 1.469,-0.808 2.43,-1.316 2.844,-1.508 l 5.242,-2.304 -0.816,-1.731 -0.235,0.11 c -1.183,0.578 -1.996,0.765 -2.472,0.582 -0.473,-0.18 -0.942,-0.75 -1.387,-1.696 -0.519,-1.132 -0.941,-1.988 -1.23,-2.562 l -2.762,-5.692 -3.375,-7.14 c -0.82,-1.738 -1.297,-2.758 -1.43,-3.067 -0.722,-1.761 -1.137,-2.863 -1.262,-3.289 -0.046,-0.203 -0.058,-0.39 -0.019,-0.547 0.031,-0.164 0.133,-0.308 0.281,-0.453 0.137,-0.144 0.832,-0.566 2.082,-1.269 l -0.812,-1.727 -5.477,2.746 -5.469,2.418 0.817,1.731 c 1.461,-0.621 2.324,-0.918 2.578,-0.86 0.277,0.043 0.582,0.297 0.898,0.762 0.325,0.453 1.157,2.121 2.516,4.984 l 6.992,14.825 -8.515,-7.657 -4.164,-3.839 c -1.102,-1.008 -2.672,-2.481 -4.723,-4.422 -1.231,-1.168 -2.223,-2.114 -2.969,-2.852 l -1.172,0.551 c 0.125,1.344 0.254,3.187 0.414,5.543 0.254,4.019 0.434,7.027 0.532,9.027 l 0.605,13.082 -4.711,-10 c -0.785,-1.66 -1.703,-3.656 -2.754,-5.984 -1.043,-2.313 -1.621,-3.641 -1.719,-3.961 -0.097,-0.332 -0.125,-0.582 -0.097,-0.773 0.039,-0.176 0.16,-0.375 0.367,-0.586 0.199,-0.219 0.859,-0.633 1.992,-1.27 l -0.82,-1.723 c -1.242,0.704 -2.551,1.372 -3.887,2.012 -1.769,0.824 -3.203,1.445 -4.277,1.84" /><path
         id="path128"
         style="fill:#bb811b;fill-opacity:1;fill-rule:nonzero;stroke:none"
         d="m 203.801,722.113 c -1.301,0 -2.594,-0.347 -3.59,-1.207 -1.016,-0.89 -1.652,-2.16 -1.719,-3.515 -0.039,-0.825 -4.394,-83.575 -4.394,-189.711 0,-110.457 7.359,-169.621 27.129,-218.313 20.058,-49.414 51.019,-73.82 112.82,-109.832 59.172,-34.461 83.933,-39.113 100.441,-39.113 16.52,0 41.27,4.652 100.43,39.113 61.82,36.012 92.777,60.418 112.852,109.832 19.753,48.692 27.109,107.856 27.109,218.313 0,106.136 -4.352,188.886 -4.387,189.711 -0.078,1.355 -0.687,2.625 -1.73,3.515 -1.004,0.879 -2.313,1.199 -3.66,1.207 0,0 -460,0 -461.301,0 z m 456.14,-10.871 c 0.997,-21.148 4.102,-94.183 4.102,-183.562 0,-108.903 -7.133,-166.965 -26.313,-214.231 -9.281,-22.851 -21.039,-40.156 -38.125,-56.101 -15.363,-14.34 -35.683,-28.375 -70.14,-48.453 -26.363,-15.352 -47.402,-25.696 -64.328,-31.606 -15.278,-5.344 -24.41,-6.031 -30.649,-6.031 -6.242,0 -15.367,0.687 -30.648,6.031 -16.926,5.91 -37.969,16.254 -64.332,31.606 -34.457,20.078 -54.778,34.117 -70.129,48.453 -17.082,15.945 -28.84,33.25 -38.113,56.097 -19.196,47.266 -26.328,105.332 -26.328,214.235 0,89.324 3.093,162.285 4.097,183.504 l 450.906,0.058" /><path
         id="path130"
         style="fill:#bb811b;fill-opacity:1;fill-rule:nonzero;stroke:none"
         d="m 573.438,588.441 -5.192,14.528 -5.141,-14.285 -15.347,-0.606 12.195,-9.43 -4.355,-14.656 12.605,8.696 12.711,-8.696 -4.359,14.821 12.175,9.265 -15.292,0.363" /><path
         id="path132"
         style="fill:#bb811b;fill-opacity:1;fill-rule:nonzero;stroke:none"
         d="m 555.488,506.078 11.645,-10.762 -1.153,15.817 15.68,2.394 -13.086,8.961 7.903,13.75 -15.164,-4.644 -5.825,14.754 -5.824,-14.754 -15.16,4.644 7.898,-13.75 -13.086,-8.961 15.68,-2.394 -1.152,-15.817 11.644,10.762" /><path
         id="path134"
         style="fill:#bb811b;fill-opacity:1;fill-rule:nonzero;stroke:none"
         d="m 618.746,593.09 11.649,-10.762 -1.153,15.813 15.676,2.398 -13.086,8.961 7.906,13.75 -15.168,-4.645 -5.824,14.75 -5.82,-14.75 -15.168,4.645 7.902,-13.75 -13.086,-8.961 15.68,-2.398 -1.152,-15.813 11.644,10.762" /><path
         id="path136"
         style="fill:#bb811b;fill-opacity:1;fill-rule:nonzero;stroke:none"
         d="m 562.152,652.414 11.649,-10.762 -1.153,15.817 15.676,2.398 -13.086,8.957 7.903,13.75 -15.168,-4.64 -5.821,14.75 -5.824,-14.75 -15.164,4.64 7.902,-13.75 -13.086,-8.957 15.676,-2.398 -1.152,-15.817 11.648,10.762" /><path
         id="path138"
         style="fill:#bb811b;fill-opacity:1;fill-rule:nonzero;stroke:none"
         d="m 495.313,601 11.652,-10.762 -1.152,15.821 15.671,2.39 -13.086,8.961 7.907,13.75 -15.168,-4.644 -5.824,14.75 -5.821,-14.75 -15.164,4.644 7.899,-13.75 -13.086,-8.961 15.679,-2.39 -1.152,-15.821 11.645,10.762" /><path
         id="path140"
         style="fill:#bb811b;fill-opacity:1;fill-rule:nonzero;stroke:none"
         d="m 556.07,468.449 c -64.14,30.668 -107.242,52.43 -122.789,52.43 -15.527,0 -56.148,-21.762 -120.289,-52.43 -64.133,-30.672 -86.027,-37.25 -86.027,-50.656 0,-13.426 15.742,-7.043 20.527,-5.609 4.789,1.437 168.457,54.394 185.789,54.394 17.34,0 183.496,-52.957 188.293,-54.394 4.793,-1.434 20.531,-7.817 20.531,5.609 0,13.406 -21.898,19.984 -86.035,50.656" /><path
         id="path142"
         style="fill:#bb811b;fill-opacity:1;fill-rule:nonzero;stroke:none"
         d="m 592.941,368.191 c -27.812,-9.336 -49.902,-29.675 -80.711,-23.882 -27.003,5.078 -49.421,28.41 -77.785,28.046 -31.05,-0.39 -54.484,-27.128 -84.949,-29.671 -29.949,-2.5 -53.246,21.683 -81.16,27.414 -12.621,2.586 -23.691,0.843 -34.231,-2.778 2.137,-10.382 4.622,-19.953 7.477,-28.965 8.316,2.004 17.074,2.571 26.754,0.586 27.914,-5.718 51.211,-29.91 81.16,-27.41 30.465,2.543 53.899,29.282 84.949,29.68 28.364,0.355 50.782,-22.973 77.785,-28.055 30.809,-5.797 52.899,14.547 80.711,23.887 12.43,4.172 23.536,3.809 34.094,1.184 2.86,8.992 5.34,18.543 7.473,28.91 -12.809,4.437 -26.172,6.226 -41.567,1.054" /><path
         id="path144"
         style="fill:#bb811b;fill-opacity:1;fill-rule:nonzero;stroke:none"
         d="m 592.941,305.891 c -27.812,-9.336 -49.902,-29.676 -80.711,-23.879 -27.003,5.078 -49.421,28.402 -77.785,28.043 -31.05,-0.395 -54.484,-27.133 -84.949,-29.676 -29.949,-2.5 -53.246,21.687 -81.16,27.414 -5.289,1.082 -10.309,1.41 -15.125,1.148 6.312,-12.687 14.172,-23.679 23.82,-33.578 0.309,-0.312 0.61,-0.547 1,-0.73 3.145,-1.524 19.352,-9.375 27.449,-13.449 13.782,-6.922 28.176,-13.278 44.016,-11.954 30.465,2.54 53.899,29.286 84.949,29.672 28.364,0.364 50.782,-22.968 77.785,-28.047 18.856,-3.546 34.735,2.833 50.372,10.356 8.121,3.902 25.48,12.523 28.73,14.137 0.391,0.191 0.684,0.422 0.988,0.738 9.164,9.609 17.035,20.617 23.125,32.84 -7.093,0.457 -14.527,-0.36 -22.504,-3.035" /><path
         id="path146"
         style="fill:#bb811b;fill-opacity:1;fill-rule:nonzero;stroke:none"
         d="m 357.953,219.406 c 12.395,-6.98 23.395,-12.672 33.18,-17.156 13.75,7.168 27.551,14.152 43.312,14.355 15.746,0.196 29.66,-6.906 43.547,-14.136 9.871,4.551 20.985,10.324 33.496,17.39 -26.672,5.364 -48.945,28.25 -77.043,27.895 -28.117,-0.356 -49.992,-22.316 -76.492,-28.348" /><path
         id="path148"
         style="fill:#bb811b;fill-opacity:1;fill-rule:nonzero;stroke:none"
         d="m 534.785,406.691 c -32.859,10.036 -55.332,16.594 -70.687,20.872 -14.621,4.078 -21.446,5.617 -25.961,6.765 -1.344,0.344 -3.606,0.77 -4.367,0.902 -1.004,-0.183 -2.387,-0.464 -4.278,-0.894 -3.789,-0.871 -9.629,-2.34 -18.597,-4.813 -15.219,-4.195 -39.473,-11.285 -78.071,-23.246 -12.39,-3.839 -26.258,-8.179 -41.773,-13.086 18.953,-9.027 37.129,-21.164 58.773,-19.355 30.465,2.539 53.899,29.281 84.953,29.672 28.36,0.363 50.774,-22.969 77.782,-28.047 25.097,-4.723 44.41,7.902 65.742,17.793 -16.227,5.059 -30.664,9.512 -43.516,13.437" /></g></g></svg>