<?xml version="1.0" encoding="UTF-8" standalone="no"?>
<svg
   xmlns:dc="http://purl.org/dc/elements/1.1/"
   xmlns:cc="http://creativecommons.org/ns#"
   xmlns:rdf="http://www.w3.org/1999/02/22-rdf-syntax-ns#"
   xmlns:svg="http://www.w3.org/2000/svg"
   xmlns="http://www.w3.org/2000/svg"
   viewBox="0 0 283.46667 99.653336"
   height="99.653336"
   width="283.46667"
   xml:space="preserve"
   id="svg2"
   version="1.1"><metadata
     id="metadata8"><rdf:RDF><cc:Work
         rdf:about=""><dc:format>image/svg+xml</dc:format><dc:type
           rdf:resource="http://purl.org/dc/dcmitype/StillImage" /><dc:title></dc:title></cc:Work></rdf:RDF></metadata><defs
     id="defs6" /><g
     transform="matrix(1.3333333,0,0,-1.3333333,0,99.653333)"
     id="g10"><g
       transform="scale(0.1)"
       id="g12"><path
         id="path14"
         style="fill:#100f0d;fill-opacity:1;fill-rule:nonzero;stroke:none"
         d="m 944.242,622.492 h 66.768 l -33.182,94.012 z m -51.258,-76.351 70.547,195.05 h 28.192 l 70.557,-195.05 h -25.5 l -19.16,53.418 H 937.898 L 918.34,546.141 h -25.356" /><path
         id="path16"
         style="fill:#100f0d;fill-opacity:1;fill-rule:nonzero;stroke:none"
         d="m 1134.98,543.441 c -7.29,0.094 -14.15,1.145 -20.58,3.172 -6.43,2.028 -12.11,5.008 -17.06,8.973 -4.94,3.949 -8.84,8.879 -11.66,14.766 -2.84,5.89 -4.26,12.75 -4.26,20.574 v 94.691 h 24.96 v -92.129 c 0,-9.09 2.81,-16.461 8.43,-22.125 5.61,-5.664 14.09,-8.496 25.43,-8.496 10.24,0 18.5,2.676 24.75,8.028 6.25,5.347 9.37,13.332 9.37,23.941 v 90.781 h 24.82 V 546.141 h -19.82 l -2.56,26.711 c -1.72,-7.016 -4.62,-12.684 -8.71,-17 -4.09,-4.317 -8.99,-7.489 -14.71,-9.512 -5.7,-2.02 -11.85,-2.985 -18.4,-2.899" /><path
         id="path18"
         style="fill:#100f0d;fill-opacity:1;fill-rule:nonzero;stroke:none"
         d="m 1284.97,543.441 c -9.71,0 -18.72,1.504 -27.05,4.52 -8.31,3.016 -15.21,7.734 -20.69,14.164 -5.49,6.43 -8.95,14.641 -10.39,24.613 h 22.66 c 1.26,-5.48 3.52,-10.043 6.81,-13.683 3.28,-3.645 7.4,-6.391 12.34,-8.231 4.94,-1.844 10.34,-2.761 16.19,-2.761 9.35,0 16.91,1.746 22.66,5.253 5.76,3.508 8.63,8.907 8.63,16.188 0,5.129 -1.5,9.234 -4.52,12.344 -3.01,3.101 -7.66,5.375 -13.95,6.812 l -28.87,7.145 c -11.25,2.703 -20.24,6.929 -26.98,12.687 -6.74,5.746 -10.12,13.797 -10.12,24.145 -0.08,8.179 1.85,15.375 5.81,21.582 3.95,6.199 9.88,11.105 17.8,14.703 7.9,3.598 17.77,5.394 29.54,5.394 15.11,0 27.32,-3.398 36.62,-10.183 9.31,-6.793 14.14,-16.754 14.5,-29.879 h -21.99 c -0.89,6.648 -3.89,11.937 -8.97,15.848 -5.07,3.914 -11.88,5.871 -20.43,5.871 -8.91,0 -16.14,-1.778 -21.71,-5.328 -5.58,-3.559 -8.37,-9.063 -8.37,-16.528 0,-4.941 1.97,-8.836 5.93,-11.668 3.96,-2.836 9.8,-5.191 17.55,-7.082 l 27.91,-7.015 c 6.48,-1.707 11.81,-3.957 15.99,-6.743 4.18,-2.793 7.51,-5.886 9.98,-9.304 2.48,-3.422 4.22,-6.996 5.26,-10.727 1.02,-3.734 1.55,-7.305 1.55,-10.723 0,-8.546 -2.14,-15.898 -6.41,-22.054 -4.26,-6.164 -10.38,-10.926 -18.34,-14.305 -7.96,-3.367 -17.6,-5.055 -28.94,-5.055" /><path
         id="path20"
         style="fill:#100f0d;fill-opacity:1;fill-rule:nonzero;stroke:none"
         d="m 1438.62,667.406 h -31.44 v -86.734 c 0,-4.949 0.53,-8.567 1.55,-10.856 1.05,-2.296 2.8,-3.761 5.26,-4.386 2.48,-0.629 5.87,-0.946 10.19,-0.946 h 15.24 v -16.722 c -1.71,-0.637 -4.29,-1.172 -7.75,-1.621 -3.46,-0.446 -7.75,-0.676 -12.88,-0.676 -9.63,0 -17.09,1.305 -22.4,3.91 -5.31,2.609 -9.02,6.477 -11.12,11.605 -2.12,5.125 -3.18,11.418 -3.18,18.883 v 87.543 h -22.66 v 18.211 h 23.34 l 6.07,40.598 h 18.34 v -40.461 h 31.44 v -18.348" /><path
         id="path22"
         style="fill:#100f0d;fill-opacity:1;fill-rule:nonzero;stroke:none"
         d="m 1471.8,546.141 v 139.476 h 23.74 v -26.844 c 2.34,6.657 5.61,12.165 9.84,16.524 4.24,4.363 9.06,7.625 14.5,9.781 5.45,2.16 11.09,3.238 16.93,3.238 2.08,0 4.1,-0.132 6.07,-0.406 1.97,-0.265 3.51,-0.722 4.59,-1.347 v -24.145 c -1.35,0.625 -3.08,1.055 -5.19,1.281 -2.12,0.223 -3.9,0.336 -5.33,0.336 -5.57,0.36 -10.79,0.024 -15.65,-1.012 -4.85,-1.031 -9.12,-2.812 -12.81,-5.328 -3.7,-2.519 -6.6,-5.824 -8.7,-9.91 -2.11,-4.097 -3.18,-9.066 -3.18,-14.906 v -86.738 h -24.81" /><path
         id="path24"
         style="fill:#100f0d;fill-opacity:1;fill-rule:nonzero;stroke:none"
         d="m 1616.26,561.383 c 4.68,0 9.34,0.847 13.95,2.562 4.64,1.703 8.89,4.024 12.76,6.95 3.87,2.914 6.95,6.203 9.25,9.843 2.28,3.645 3.47,7.395 3.57,11.266 v 23.871 l -20.78,-0.398 c -10.61,-0.188 -19.48,-1.266 -26.64,-3.239 -7.14,-1.976 -12.5,-5.086 -16.06,-9.312 -3.55,-4.223 -5.32,-9.754 -5.32,-16.586 0,-7.828 2.72,-13.942 8.17,-18.348 5.43,-4.406 12.47,-6.609 21.1,-6.609 z m -7.55,-17.942 c -8.99,0 -16.96,1.598 -23.88,4.793 -6.92,3.188 -12.34,7.797 -16.26,13.829 -3.9,6.019 -5.86,13.3 -5.86,21.843 0,15.469 5.4,26.981 16.19,34.532 10.79,7.554 28.1,11.609 51.93,12.144 l 24.96,0.676 v 10.926 c 0,8.543 -2.57,15.312 -7.68,20.3 -5.14,4.989 -13.1,7.489 -23.89,7.489 -8.01,-0.094 -15.04,-1.981 -21.11,-5.672 -6.07,-3.68 -10,-9.711 -11.8,-18.071 h -21.99 c 0.54,9.079 3.1,16.75 7.69,22.993 4.59,6.257 10.99,10.996 19.22,14.234 8.23,3.238 17.97,4.859 29.2,4.859 12.15,0 22.24,-1.714 30.28,-5.125 8.05,-3.418 14.08,-8.461 18.09,-15.109 3.99,-6.656 5.99,-14.84 5.99,-24.551 v -97.39 h -21.3 l -1.75,26.172 c -5.4,-10.887 -12.27,-18.418 -20.58,-22.594 -8.33,-4.188 -17.47,-6.278 -27.45,-6.278" /><path
         id="path26"
         style="fill:#100f0d;fill-opacity:1;fill-rule:nonzero;stroke:none"
         d="m 1752.77,544.387 c -7.55,0 -13.64,1.035 -18.28,3.105 -4.63,2.067 -8.18,4.86 -10.65,8.36 -2.47,3.507 -4.13,7.535 -4.99,12.07 -0.85,4.547 -1.28,9.246 -1.28,14.101 v 164.563 h 24.55 V 584.449 c 0,-7.015 1.37,-12.273 4.11,-15.781 2.74,-3.512 6.58,-5.445 11.53,-5.801 l 7.55,-0.137 v -16.187 c -2.06,-0.625 -4.22,-1.141 -6.47,-1.547 -2.24,-0.41 -4.27,-0.609 -6.07,-0.609" /><path
         id="path28"
         style="fill:#100f0d;fill-opacity:1;fill-rule:nonzero;stroke:none"
         d="M 1820.76,685.617 V 546.141 h -24.14 v 139.476 z m 0.55,55.442 V 715.16 h -25.5 v 25.899 h 25.5" /><path
         id="path30"
         style="fill:#100f0d;fill-opacity:1;fill-rule:nonzero;stroke:none"
         d="m 1908.04,561.383 c 4.67,0 9.32,0.847 13.95,2.562 4.64,1.703 8.88,4.024 12.76,6.95 3.86,2.914 6.94,6.203 9.23,9.843 2.3,3.645 3.49,7.395 3.58,11.266 v 23.871 l -20.78,-0.398 c -10.61,-0.188 -19.49,-1.266 -26.63,-3.239 -7.15,-1.976 -12.5,-5.086 -16.06,-9.312 -3.55,-4.223 -5.32,-9.754 -5.32,-16.586 0,-7.828 2.7,-13.942 8.15,-18.348 5.44,-4.406 12.48,-6.609 21.12,-6.609 z m -7.56,-17.942 c -9,0 -16.95,1.598 -23.87,4.793 -6.93,3.188 -12.34,7.797 -16.26,13.829 -3.9,6.019 -5.87,13.3 -5.87,21.843 0,15.469 5.39,26.981 16.18,34.532 10.8,7.554 28.12,11.609 51.94,12.144 l 24.96,0.676 v 10.926 c 0,8.543 -2.57,15.312 -7.69,20.3 -5.12,4.989 -13.09,7.489 -23.88,7.489 -8,-0.094 -15.03,-1.981 -21.11,-5.672 -6.06,-3.68 -10,-9.711 -11.79,-18.071 h -22.01 c 0.55,9.079 3.11,16.75 7.71,22.993 4.58,6.257 10.99,10.996 19.22,14.234 8.23,3.238 17.96,4.859 29.2,4.859 12.14,0 22.23,-1.714 30.28,-5.125 8.05,-3.418 14.07,-8.461 18.08,-15.109 3.99,-6.656 6,-14.84 6,-24.551 v -97.39 h -21.32 l -1.74,26.172 c -5.39,-10.887 -12.26,-18.418 -20.58,-22.594 -8.32,-4.188 -17.47,-6.278 -27.45,-6.278" /><path
         id="path32"
         style="fill:#100f0d;fill-opacity:1;fill-rule:nonzero;stroke:none"
         d="m 2008.25,546.141 v 139.476 h 24.15 v -20.234 c 2.24,3.871 5.36,7.508 9.38,10.933 3.99,3.407 8.85,6.149 14.56,8.219 5.71,2.067 12.3,3.11 19.76,3.11 8.82,0 16.93,-1.758 24.35,-5.266 7.42,-3.508 13.36,-8.969 17.81,-16.391 4.45,-7.414 6.67,-16.972 6.67,-28.664 v -91.183 h -24.96 v 88.757 c 0,10.879 -2.85,18.954 -8.55,24.215 -5.72,5.258 -13.12,7.891 -22.19,7.891 -6.31,0 -12.2,-1.016 -17.69,-3.035 -5.48,-2.024 -9.93,-5.082 -13.35,-9.172 -3.41,-4.098 -5.12,-9.238 -5.12,-15.445 v -93.211 h -24.82" /><path
         id="path34"
         style="fill:#100f0d;fill-opacity:1;fill-rule:nonzero;stroke:none"
         d="m 1023.69,490.379 h 24.96 V 295.316 h -22.26 L 921.715,449.098 V 295.316 h -24.957 v 195.063 h 23.879 L 1023.69,338.75 v 151.629" /><path
         id="path36"
         style="fill:#100f0d;fill-opacity:1;fill-rule:nonzero;stroke:none"
         d="m 1137.55,310.559 c 4.66,0 9.33,0.851 13.95,2.566 4.63,1.711 8.88,4.02 12.75,6.938 3.86,2.929 6.95,6.207 9.25,9.859 2.28,3.641 3.47,7.391 3.58,11.266 v 23.871 l -20.79,-0.399 c -10.61,-0.187 -19.48,-1.265 -26.64,-3.238 -7.15,-1.977 -12.49,-5.082 -16.05,-9.317 -3.56,-4.226 -5.32,-9.761 -5.32,-16.589 0,-7.825 2.71,-13.938 8.16,-18.348 5.43,-4.406 12.47,-6.609 21.11,-6.609 z m -7.57,-17.946 c -8.98,0 -16.96,1.606 -23.86,4.789 -6.93,3.2 -12.35,7.805 -16.26,13.832 -3.92,6.028 -5.87,13.313 -5.87,21.852 0,15.469 5.39,26.984 16.19,34.535 10.79,7.555 28.1,11.606 51.92,12.145 l 24.98,0.675 v 10.922 c 0,8.543 -2.58,15.313 -7.7,20.301 -5.13,4.992 -13.09,7.492 -23.88,7.492 -8.01,-0.093 -15.05,-1.98 -21.11,-5.668 -6.06,-3.687 -10.01,-9.715 -11.8,-18.078 h -21.99 c 0.54,9.082 3.1,16.75 7.69,23 4.58,6.254 10.99,10.996 19.21,14.235 8.25,3.234 17.97,4.855 29.21,4.855 12.15,0 22.25,-1.715 30.28,-5.133 8.06,-3.418 14.08,-8.449 18.09,-15.105 3.99,-6.657 6,-14.832 6,-24.547 v -97.399 h -21.31 l -1.75,26.168 c -5.41,-10.882 -12.27,-18.406 -20.58,-22.589 -8.32,-4.18 -17.47,-6.282 -27.46,-6.282" /><path
         id="path38"
         style="fill:#100f0d;fill-opacity:1;fill-rule:nonzero;stroke:none"
         d="m 1302.65,416.59 h -31.44 v -86.738 c 0,-4.946 0.53,-8.563 1.55,-10.868 1.04,-2.289 2.8,-3.75 5.27,-4.375 2.48,-0.629 5.87,-0.945 10.18,-0.945 h 15.25 v -16.726 c -1.71,-0.633 -4.3,-1.168 -7.76,-1.622 -3.46,-0.453 -7.76,-0.675 -12.89,-0.675 -9.62,0 -17.08,1.3 -22.39,3.914 -5.3,2.609 -9.01,6.476 -11.12,11.601 -2.12,5.129 -3.17,11.422 -3.17,18.883 v 87.551 h -22.66 v 18.211 h 23.34 l 6.06,40.601 h 18.34 v -40.468 h 31.44 V 416.59" /><path
         id="path40"
         style="fill:#100f0d;fill-opacity:1;fill-rule:nonzero;stroke:none"
         d="M 1362.8,434.801 V 295.316 h -24.14 v 139.485 z m 0.55,55.437 v -25.894 h -25.5 v 25.894 h 25.5" /><path
         id="path42"
         style="fill:#100f0d;fill-opacity:1;fill-rule:nonzero;stroke:none"
         d="m 1459.39,312.316 c 8.35,0 15.41,2.11 21.17,6.34 5.76,4.227 10.12,10.289 13.08,18.215 2.97,7.902 4.47,17.309 4.47,28.188 0,9.988 -1.31,18.957 -3.92,26.91 -2.61,7.961 -6.78,14.277 -12.48,18.961 -5.71,4.668 -13.16,7.011 -22.32,7.011 -8.46,0 -15.61,-2.089 -21.45,-6.277 -5.85,-4.18 -10.27,-10.226 -13.29,-18.141 -3.01,-7.918 -4.52,-17.398 -4.52,-28.464 0,-9.797 1.34,-18.704 4.05,-26.707 2.7,-8.008 6.92,-14.352 12.69,-19.024 5.75,-4.68 13.25,-7.012 22.52,-7.012 z m 0,-19.703 c -12.87,0 -24.11,2.778 -33.73,8.305 -9.62,5.527 -17.08,13.641 -22.39,24.348 -5.31,10.699 -7.96,23.785 -7.96,39.254 0,14.57 2.47,27.335 7.42,38.312 4.95,10.969 12.21,19.492 21.79,25.563 9.58,6.07 21.19,9.105 34.87,9.105 12.86,0 24.03,-2.812 33.51,-8.434 9.49,-5.625 16.85,-13.871 22.06,-24.753 5.22,-10.879 7.82,-24.145 7.82,-39.793 0,-14.207 -2.41,-26.715 -7.21,-37.508 -4.82,-10.789 -11.92,-19.219 -21.32,-25.293 -9.4,-6.063 -21.02,-9.106 -34.86,-9.106" /><path
         id="path44"
         style="fill:#100f0d;fill-opacity:1;fill-rule:nonzero;stroke:none"
         d="m 1552.86,295.316 v 139.485 h 24.15 v -20.235 c 2.25,3.868 5.37,7.504 9.38,10.926 3.99,3.414 8.85,6.16 14.56,8.231 5.71,2.062 12.3,3.105 19.76,3.105 8.82,0 16.93,-1.758 24.35,-5.265 7.42,-3.508 13.36,-8.969 17.81,-16.391 4.45,-7.418 6.67,-16.973 6.67,-28.66 v -91.196 h -24.95 v 88.766 c 0,10.879 -2.86,18.949 -8.56,24.215 -5.72,5.254 -13.12,7.887 -22.19,7.887 -6.3,0 -12.19,-1.012 -17.68,-3.036 -5.48,-2.019 -9.94,-5.082 -13.35,-9.168 -3.43,-4.097 -5.12,-9.238 -5.12,-15.449 v -93.215 h -24.83" /><path
         id="path46"
         style="fill:#100f0d;fill-opacity:1;fill-rule:nonzero;stroke:none"
         d="m 1751.56,310.559 c 4.68,0 9.34,0.851 13.96,2.566 4.64,1.711 8.87,4.02 12.75,6.938 3.87,2.929 6.95,6.207 9.24,9.859 2.29,3.641 3.49,7.391 3.58,11.266 v 23.871 l -20.78,-0.399 c -10.6,-0.187 -19.49,-1.265 -26.64,-3.238 -7.15,-1.977 -12.5,-5.082 -16.05,-9.317 -3.56,-4.226 -5.33,-9.761 -5.33,-16.589 0,-7.825 2.72,-13.938 8.16,-18.348 5.44,-4.406 12.48,-6.609 21.11,-6.609 z m -7.55,-17.946 c -8.99,0 -16.96,1.606 -23.87,4.789 -6.93,3.2 -12.35,7.805 -16.26,13.832 -3.91,6.028 -5.87,13.313 -5.87,21.852 0,15.469 5.4,26.984 16.19,34.535 10.79,7.555 28.1,11.606 51.92,12.145 l 24.97,0.675 v 10.922 c 0,8.543 -2.57,15.313 -7.69,20.301 -5.13,4.992 -13.09,7.492 -23.88,7.492 -8.01,-0.093 -15.04,-1.98 -21.11,-5.668 -6.07,-3.687 -10,-9.715 -11.8,-18.078 h -21.99 c 0.55,9.082 3.1,16.75 7.69,23 4.58,6.254 10.99,10.996 19.22,14.235 8.24,3.234 17.97,4.855 29.2,4.855 12.15,0 22.24,-1.715 30.29,-5.133 8.04,-3.418 14.07,-8.449 18.07,-15.105 4.01,-6.657 6.01,-14.832 6.01,-24.547 v -97.399 h -21.32 l -1.75,26.168 c -5.39,-10.882 -12.25,-18.406 -20.57,-22.589 -8.33,-4.18 -17.48,-6.282 -27.45,-6.282" /><path
         id="path48"
         style="fill:#100f0d;fill-opacity:1;fill-rule:nonzero;stroke:none"
         d="m 1888.08,293.563 c -7.55,0 -13.66,1.039 -18.29,3.101 -4.62,2.066 -8.18,4.859 -10.66,8.367 -2.46,3.504 -4.13,7.532 -4.98,12.074 -0.85,4.532 -1.28,9.239 -1.28,14.09 v 164.578 h 24.55 V 333.629 c 0,-7.016 1.37,-12.281 4.11,-15.781 2.75,-3.504 6.59,-5.45 11.53,-5.801 l 7.56,-0.141 v -16.187 c -2.08,-0.625 -4.23,-1.145 -6.48,-1.555 -2.24,-0.398 -4.27,-0.601 -6.06,-0.601" /><path
         id="path50"
         style="fill:#100f0d;fill-opacity:1;fill-rule:nonzero;stroke:none"
         d="m 1039.34,111.957 c 0,-15.0234 -2.47,-27.7461 -7.42,-38.1757 -4.95,-10.4297 -12.66,-18.3672 -23.13,-23.8047 -10.477,-5.4453 -24.083,-8.168 -40.806,-8.168 -16.91,0 -30.601,2.7969 -41.074,8.3633 -10.48,5.582 -18.125,13.7656 -22.933,24.5547 -4.813,10.7929 -7.219,24.0586 -7.219,39.7934 v 125.043 h 25.898 V 110.738 c 0,-15.738 3.91,-27.5153 11.739,-35.3317 7.824,-7.8321 19.019,-11.7383 33.589,-11.7383 9.797,0 18.145,1.7031 25.02,5.1289 6.879,3.4101 12.146,8.6015 15.786,15.5703 3.64,6.9687 5.46,15.7658 5.46,26.3708 v 128.825 h 25.09 V 111.957" /><path
         id="path52"
         style="fill:#100f0d;fill-opacity:1;fill-rule:nonzero;stroke:none"
         d="M 1075.76,44.5117 V 183.984 h 24.14 v -20.226 c 2.25,3.863 5.37,7.504 9.38,10.926 3.99,3.414 8.86,6.156 14.56,8.222 5.71,2.074 12.31,3.102 19.77,3.102 8.82,0 16.92,-1.75 24.33,-5.262 7.43,-3.504 13.37,-8.965 17.83,-16.379 4.44,-7.422 6.66,-16.976 6.66,-28.668 V 44.5117 h -24.95 V 133.27 c 0,10.878 -2.86,18.949 -8.56,24.207 -5.71,5.261 -13.11,7.894 -22.2,7.894 -6.29,0 -12.18,-1.004 -17.67,-3.031 -5.47,-2.027 -9.93,-5.086 -13.34,-9.18 -3.42,-4.086 -5.13,-9.238 -5.13,-15.445 V 44.5117 h -24.82" /><path
         id="path54"
         style="fill:#100f0d;fill-opacity:1;fill-rule:nonzero;stroke:none"
         d="M 1254.89,183.984 V 44.5117 h -24.14 V 183.984 Z m 0.55,55.446 v -25.899 h -25.5 v 25.899 h 25.5" /><path
         id="path56"
         style="fill:#100f0d;fill-opacity:1;fill-rule:nonzero;stroke:none"
         d="m 1405.02,183.984 -50.3,-139.4723 h -22.67 L 1281.6,183.984 h 23.48 l 37.09,-108.1754 h 2.29 l 37.23,108.1754 h 23.33" /><path
         id="path58"
         style="fill:#100f0d;fill-opacity:1;fill-rule:nonzero;stroke:none"
         d="m 1441.98,125.309 h 75.8 c 0,8.007 -1.34,15.222 -4.04,21.656 -2.7,6.426 -6.81,11.512 -12.34,15.242 -5.54,3.731 -12.48,5.594 -20.84,5.594 -8.72,0 -15.94,-2.094 -21.65,-6.274 -5.72,-4.183 -9.98,-9.523 -12.82,-16.05 -2.84,-6.516 -4.21,-13.239 -4.11,-20.168 z m -0.13,-16.868 c 0,-8.8004 1.46,-16.7887 4.37,-23.9332 2.92,-7.1523 7.38,-12.8476 13.37,-17.0703 5.97,-4.2227 13.46,-6.3359 22.45,-6.3359 8.9,0 16.56,2.0742 23,6.2031 6.42,4.1406 10.55,10.125 12.34,17.9453 H 1541 c -1.72,-9.4414 -5.49,-17.3984 -11.34,-23.8711 -5.85,-6.4766 -12.91,-11.3594 -21.17,-14.6406 -8.28,-3.2852 -16.92,-4.9297 -25.91,-4.9297 -13.04,0 -24.5,2.8359 -34.4,8.5 -9.89,5.6719 -17.62,13.7969 -23.2,24.418 -5.58,10.6054 -8.37,23.3398 -8.37,38.1714 0,14.661 2.52,27.516 7.56,38.579 5.04,11.07 12.34,19.703 21.92,25.898 9.58,6.211 21.11,9.313 34.6,9.313 13.13,0 24.24,-2.84 33.32,-8.5 9.08,-5.665 15.98,-13.653 20.71,-23.95 4.72,-10.297 7.08,-22.504 7.08,-36.617 v -9.18 h -99.95" /><path
         id="path60"
         style="fill:#100f0d;fill-opacity:1;fill-rule:nonzero;stroke:none"
         d="M 1573.23,44.5117 V 183.984 h 23.74 v -26.836 c 2.35,6.653 5.63,12.161 9.85,16.516 4.23,4.367 9.06,7.625 14.5,9.785 5.45,2.156 11.09,3.239 16.92,3.239 2.08,0 4.1,-0.133 6.08,-0.403 1.97,-0.277 3.5,-0.726 4.59,-1.355 v -24.145 c -1.35,0.633 -3.08,1.063 -5.2,1.285 -2.12,0.215 -3.9,0.332 -5.32,0.332 -5.58,0.36 -10.79,0.02 -15.66,-1.007 -4.84,-1.04 -9.12,-2.817 -12.81,-5.325 -3.69,-2.531 -6.59,-5.824 -8.69,-9.918 -2.12,-4.089 -3.18,-9.062 -3.18,-14.91 V 44.5117 h -24.82" /><path
         id="path62"
         style="fill:#100f0d;fill-opacity:1;fill-rule:nonzero;stroke:none"
         d="m 1723.63,41.8086 c -9.71,0 -18.73,1.5078 -27.05,4.5195 -8.32,3.0157 -15.22,7.7383 -20.7,14.1641 -5.49,6.4336 -8.95,14.6367 -10.39,24.625 h 22.66 c 1.26,-5.4883 3.53,-10.0547 6.82,-13.6992 3.27,-3.6407 7.39,-6.3828 12.33,-8.2227 4.96,-1.8515 10.35,-2.7656 16.2,-2.7656 9.35,0 16.9,1.75 22.66,5.2656 5.75,3.5 8.63,8.8945 8.63,16.1875 0,5.1133 -1.51,9.2344 -4.53,12.336 -3,3.1054 -7.66,5.3671 -13.95,6.8082 l -28.87,7.153 c -11.24,2.699 -20.23,6.925 -26.97,12.679 -6.75,5.758 -10.12,13.805 -10.12,24.141 -0.09,8.184 1.84,15.387 5.8,21.582 3.96,6.211 9.89,11.113 17.81,14.707 7.91,3.602 17.76,5.399 29.54,5.399 15.1,0 27.31,-3.391 36.62,-10.188 9.3,-6.793 14.14,-16.746 14.5,-29.871 h -21.98 c -0.91,6.648 -3.9,11.926 -8.98,15.844 -5.08,3.914 -11.89,5.867 -20.43,5.867 -8.91,0 -16.15,-1.777 -21.72,-5.332 -5.58,-3.543 -8.37,-9.059 -8.37,-16.52 0,-4.949 1.98,-8.836 5.93,-11.672 3.97,-2.824 9.81,-5.191 17.55,-7.082 l 27.91,-7.004 c 6.49,-1.718 11.81,-3.96 16,-6.753 4.18,-2.789 7.5,-5.891 9.98,-9.301 2.47,-3.426 4.22,-7.0002 5.25,-10.7307 1.04,-3.7305 1.55,-7.3086 1.55,-10.7226 0,-8.5391 -2.13,-15.8985 -6.4,-22.0547 -4.27,-6.1524 -10.38,-10.9219 -18.35,-14.293 -7.95,-3.3711 -17.6,-5.0664 -28.93,-5.0664" /><path
         id="path64"
         style="fill:#100f0d;fill-opacity:1;fill-rule:nonzero;stroke:none"
         d="M 1836.41,183.984 V 44.5117 h -24.14 V 183.984 Z m 0.53,55.446 v -25.899 h -25.49 v 25.899 h 25.49" /><path
         id="path66"
         style="fill:#100f0d;fill-opacity:1;fill-rule:nonzero;stroke:none"
         d="m 1947.55,165.781 h -31.44 V 79.043 c 0,-4.9453 0.53,-8.5625 1.56,-10.8633 1.03,-2.2891 2.79,-3.75 5.26,-4.3789 2.47,-0.625 5.87,-0.9453 10.19,-0.9453 h 15.23 V 46.1328 c -1.7,-0.6328 -4.3,-1.1719 -7.74,-1.6211 -3.47,-0.4531 -7.77,-0.6758 -12.9,-0.6758 -9.61,0 -17.08,1.3008 -22.39,3.9141 -5.3,2.6055 -9.01,6.4766 -11.12,11.6016 -2.12,5.1289 -3.17,11.4179 -3.17,18.8789 v 87.5505 h -22.66 v 18.203 h 23.34 l 6.05,40.606 h 18.35 v -40.461 h 31.44 v -18.348" /><path
         id="path68"
         style="fill:#100f0d;fill-opacity:1;fill-rule:nonzero;stroke:none"
         d="m 1995.43,0 c -8.17,0 -15.33,1.17188 -21.45,3.50391 V 19.6875 l 14.16,-0.2617 c 5.23,-0.1875 9.55,0.1758 12.95,1.0781 3.43,0.8945 6.17,2.1055 8.24,3.6367 2.07,1.5313 3.66,3.2383 4.79,5.1289 1.11,1.8868 2.04,3.6914 2.76,5.3946 l 4.85,13.2187 -54.48,136.1012 h 25.21 l 41.14,-107.6363 40.87,107.6363 h 24.43 L 2040.08,33.9844 c -3.6,-8.8086 -7.62,-15.6914 -12.07,-20.6328 -4.45,-4.94926 -9.4,-8.41019 -14.84,-10.39066 C 2007.72,0.988281 2001.82,0 1995.43,0" /><path
         id="path70"
         style="fill:#bb811b;fill-opacity:1;fill-rule:nonzero;stroke:none"
         d="m 13.2383,740.023 c -1.6211,0 -3.2227,-0.429 -4.46877,-1.496 C 7.50391,737.422 6.71875,735.844 6.62891,734.152 6.58203,733.125 1.17188,630.223 1.17188,498.223 1.17188,360.859 10.3164,287.281 34.9063,226.73 59.8516,165.27 98.3594,134.918 175.219,90.1328 248.805,47.2813 279.594,41.4961 300.129,41.4961 c 20.547,0 51.324,5.7852 124.894,48.6367 76.879,44.7852 115.387,75.1372 140.348,136.5972 24.57,60.551 33.711,134.129 33.711,271.493 0,132 -5.406,234.902 -5.453,235.929 -0.09,1.692 -0.856,3.27 -2.149,4.375 -1.246,1.094 -2.878,1.496 -4.546,1.496 0,0 -572.0824,0 -573.6957,0 z M 580.512,726.516 c 1.234,-26.301 5.097,-117.141 5.097,-228.293 0,-135.43 -8.871,-207.641 -32.718,-266.426 -11.543,-28.418 -26.168,-49.938 -47.418,-69.77 -19.102,-17.832 -44.375,-35.289 -87.231,-60.254 -32.781,-19.0894 -58.949,-31.9527 -80,-39.3121 -19,-6.6406 -30.351,-7.4921 -38.113,-7.4921 -7.766,0 -19.109,0.8515 -38.117,7.4921 -21.051,7.3594 -47.223,20.2227 -80.008,39.3121 -42.848,24.969 -68.117,42.426 -87.2149,60.254 -21.2461,19.832 -35.8633,41.352 -47.3946,69.77 -23.875,58.781 -32.7461,130.992 -32.7461,266.426 0,111.09 3.8516,201.82 5.0977,228.218 l 560.7659,0.075" /><path
         id="path72"
         style="fill:#bb811b;fill-opacity:1;fill-rule:nonzero;stroke:none"
         d="m 472.934,573.789 -6.454,18.066 -6.398,-17.761 -19.086,-0.758 15.16,-11.723 -5.414,-18.226 15.676,10.808 15.809,-10.808 -5.426,18.426 15.152,11.523 -19.019,0.453" /><path
         id="path74"
         style="fill:#bb811b;fill-opacity:1;fill-rule:nonzero;stroke:none"
         d="m 450.609,471.359 14.485,-13.382 -1.438,19.668 19.504,2.976 -16.273,11.149 9.824,17.097 -18.859,-5.773 -7.243,18.344 -7.246,-18.344 -18.855,5.773 9.828,-17.097 -16.273,-11.149 19.496,-2.976 -1.438,-19.668 14.488,13.382" /><path
         id="path76"
         style="fill:#bb811b;fill-opacity:1;fill-rule:nonzero;stroke:none"
         d="m 529.277,579.57 14.489,-13.382 -1.438,19.671 19.496,2.981 -16.273,11.14 9.832,17.102 -18.86,-5.777 -7.246,18.347 -7.242,-18.347 -18.855,5.777 9.824,-17.102 -16.277,-11.14 19.5,-2.981 -1.43,-19.671 14.48,13.382" /><path
         id="path78"
         style="fill:#bb811b;fill-opacity:1;fill-rule:nonzero;stroke:none"
         d="m 458.895,653.352 14.484,-13.383 -1.43,19.672 19.496,2.976 -16.273,11.145 9.824,17.097 -18.859,-5.777 -7.242,18.352 -7.247,-18.352 -18.855,5.777 9.828,-17.097 -16.273,-11.145 19.496,-2.976 -1.434,-19.672 14.485,13.383" /><path
         id="path80"
         style="fill:#bb811b;fill-opacity:1;fill-rule:nonzero;stroke:none"
         d="m 375.77,589.41 14.488,-13.39 -1.434,19.675 19.496,2.977 -16.273,11.148 9.828,17.102 -18.855,-5.777 -7.25,18.343 -7.239,-18.343 -18.859,5.777 9.824,-17.102 -16.273,-11.148 19.504,-2.977 -1.438,-19.675 14.481,13.39" /><path
         id="path82"
         style="fill:#bb811b;fill-opacity:1;fill-rule:nonzero;stroke:none"
         d="m 451.332,424.566 c -79.769,38.141 -133.371,65.196 -152.703,65.196 -19.313,0 -69.828,-27.055 -149.598,-65.196 C 69.2734,386.418 42.0391,378.238 42.0391,361.559 c 0,-16.692 19.582,-8.75 25.5312,-6.961 5.957,1.781 209.4957,67.64 231.0587,67.64 21.562,0 228.203,-65.859 234.164,-67.64 5.961,-1.789 25.535,-9.731 25.535,6.961 0,16.679 -27.238,24.859 -106.996,63.007" /><path
         id="path84"
         style="fill:#bb811b;fill-opacity:1;fill-rule:nonzero;stroke:none"
         d="m 497.184,299.883 c -34.59,-11.613 -62.055,-36.906 -100.371,-29.699 -33.59,6.312 -61.465,35.324 -96.739,34.875 -38.613,-0.489 -67.761,-33.739 -105.644,-36.903 -37.246,-3.105 -66.215,26.973 -100.9339,34.09 -15.6992,3.219 -29.4648,1.051 -42.5703,-3.445 2.6601,-12.922 5.7422,-24.821 9.2969,-36.024 10.3398,2.489 21.2382,3.196 33.2734,0.731 34.7189,-7.121 63.6879,-37.199 100.9339,-34.094 37.883,3.164 67.031,36.418 105.644,36.906 35.274,0.45 63.149,-28.566 96.739,-34.882 38.316,-7.208 65.781,18.089 100.371,29.707 15.457,5.183 29.269,4.742 42.406,1.468 3.551,11.184 6.637,23.063 9.293,35.953 -15.934,5.524 -32.555,7.743 -51.699,1.317" /><path
         id="path86"
         style="fill:#bb811b;fill-opacity:1;fill-rule:nonzero;stroke:none"
         d="m 497.184,222.398 c -34.59,-11.613 -62.055,-36.91 -100.371,-29.703 -33.59,6.321 -61.465,35.332 -96.739,34.883 -38.613,-0.488 -67.761,-33.738 -105.644,-36.902 -37.246,-3.113 -66.215,26.972 -100.9339,34.09 -6.582,1.347 -12.8164,1.75 -18.8125,1.429 7.8516,-15.781 17.625,-29.445 29.6294,-41.761 0.378,-0.391 0.753,-0.672 1.238,-0.911 3.914,-1.89 24.066,-11.656 34.137,-16.718 17.144,-8.617 35.042,-16.516 54.742,-14.871 37.883,3.164 67.031,36.418 105.644,36.906 35.274,0.449 63.149,-28.567 96.739,-34.883 23.445,-4.41 43.199,3.523 62.64,12.875 10.102,4.859 31.692,15.574 35.735,17.582 0.48,0.238 0.847,0.527 1.222,0.918 11.403,11.949 21.192,25.641 28.762,40.84 -8.824,0.57 -18.067,-0.438 -27.988,-3.774" /><path
         id="path88"
         style="fill:#bb811b;fill-opacity:1;fill-rule:nonzero;stroke:none"
         d="m 204.945,114.844 c 15.414,-8.68 29.098,-15.7542 41.266,-21.3362 17.102,8.9102 34.262,17.6012 53.863,17.8512 19.582,0.246 36.891,-8.589 54.16,-17.5738 12.274,5.6523 26.094,12.8318 41.657,21.6248 -33.176,6.672 -60.868,35.133 -95.817,34.688 -34.969,-0.446 -62.168,-27.746 -95.129,-35.254" /><path
         id="path90"
         style="fill:#bb811b;fill-opacity:1;fill-rule:nonzero;stroke:none"
         d="m 424.863,347.762 c -40.871,12.476 -68.816,20.633 -87.914,25.957 -18.179,5.062 -26.672,6.984 -32.285,8.41 -1.672,0.426 -4.484,0.953 -5.426,1.125 -1.254,-0.231 -2.972,-0.582 -5.328,-1.117 -4.711,-1.082 -11.972,-2.907 -23.125,-5.981 -18.93,-5.218 -49.09,-14.035 -97.094,-28.91 -15.402,-4.773 -32.652,-10.172 -51.949,-16.273 23.571,-11.231 46.172,-26.325 73.098,-24.078 37.887,3.164 67.031,36.418 105.644,36.91 35.274,0.445 63.149,-28.567 96.739,-34.883 31.211,-5.875 55.222,9.824 81.754,22.125 -20.176,6.293 -38.133,11.836 -54.114,16.715" /></g></g></svg>