<svg width="34" height="35" viewBox="0 0 34 35" fill="none" xmlns="http://www.w3.org/2000/svg">
<path d="M32.8298 26.56C33.1098 26.31 33.4098 26.08 33.6998 25.84V25.07C33.2798 25.41 32.8398 25.76 32.4298 26.07L31.9898 26.45C31.5347 26.3551 31.0649 26.3551 30.6098 26.45C30.3687 26.4988 30.1362 26.583 29.9198 26.7C29.8175 26.7504 29.7204 26.8107 29.6298 26.88H29.4398H29.3598C29.3394 26.8464 29.3074 26.8215 29.2698 26.81C29.226 26.797 29.179 26.8011 29.1381 26.8215C29.0973 26.842 29.0657 26.8772 29.0498 26.92V26.92C28.2498 26.86 26.5298 26.68 26.0498 26.62C25.9098 26.62 25.9398 26.39 26.0498 26.21C28.6398 24.49 30.8198 21.62 30.8598 18.37C30.9298 17.21 31.0198 16.37 31.1198 15.61C31.1198 15.13 31.2198 14.68 31.2698 14.18C31.2698 14.09 31.2698 14 31.2698 13.9V14C31.2698 14 31.2698 13.92 31.2698 13.87C31.2698 13.82 31.2698 13.73 31.2698 13.66C32.0505 13.3492 32.8616 13.1213 33.6898 12.98C33.5798 12.42 31.8798 12.33 31.0098 12.35C30.6985 11.4739 30.124 10.7153 29.365 10.1783C28.606 9.64128 27.6996 9.35198 26.7698 9.34998C24.5998 9.34998 22.4998 10.53 19.8598 13.28C19.6148 13.5339 19.3227 13.7377 18.9998 13.88C16.9883 14.8508 15.0986 16.0558 13.3698 17.47L7.52983 1.52997C7.3219 1.20901 7.00461 0.974358 6.63683 0.86954C6.26904 0.764721 5.87573 0.796839 5.52983 0.959963C5.36364 1.03757 5.21155 1.14233 5.07982 1.26996C5.0067 1.33916 4.95826 1.43044 4.942 1.52979C4.92575 1.62914 4.94254 1.73109 4.98979 1.81998L13.1098 17.68L13.0198 17.76L4.28978 1.36997C4.22199 1.23836 4.12588 1.12347 4.00829 1.03354C3.89069 0.943616 3.75456 0.880917 3.60979 0.849978C3.11676 0.742187 2.60112 0.832838 2.17442 1.10233C1.74773 1.37182 1.44434 1.79848 1.32982 2.28998C1.29222 2.43483 1.29171 2.5868 1.32842 2.73187C1.36512 2.87695 1.43782 3.01043 1.53978 3.11997L12.8498 17.9L12.7898 17.95L12.6998 17.89L1.69982 3.97998C1.63849 3.9024 1.55425 3.84612 1.45909 3.81919C1.36393 3.79225 1.26268 3.79602 1.16979 3.82996C0.991475 3.89873 0.825883 3.99675 0.679796 4.11997C0.387292 4.36722 0.193847 4.71175 0.135057 5.09021C0.0762663 5.46868 0.156074 5.85563 0.359788 6.17996L10.9498 16.61L8.38982 14.78C8.30266 14.7425 8.20481 14.738 8.11461 14.7675C8.02441 14.7969 7.94806 14.8583 7.89983 14.94C7.84757 15.019 7.82585 15.1143 7.83873 15.2082C7.85161 15.302 7.89816 15.388 7.96977 15.45L11.5698 17.39L7.8698 15.84C7.77612 15.8226 7.67934 15.8393 7.59685 15.8869C7.51435 15.9346 7.45154 16.0101 7.41979 16.1C7.38519 16.1892 7.38554 16.2882 7.42076 16.3772C7.45599 16.4662 7.52349 16.5386 7.60979 16.58L12.2198 17.86L12.5598 18.19C11.6079 18.9869 10.7062 19.8418 9.85979 20.75C9.05267 21.5846 8.34158 22.507 7.73979 23.5L7.33983 24.2L8.04979 23.83C9.4877 23.1576 11.0366 22.7543 12.6198 22.64C13.0629 23.5572 13.6542 24.3951 14.3698 25.12C15.8081 26.5938 17.6786 27.571 19.7098 27.91L19.5498 28.34C19.521 28.3983 19.5041 28.4618 19.5001 28.5267C19.4961 28.5917 19.505 28.6568 19.5264 28.7182C19.5478 28.7796 19.5813 28.8362 19.6248 28.8846C19.6683 28.9329 19.721 28.9722 19.7798 29L25.0298 31.64C25.0243 31.6735 25.0279 31.7079 25.0402 31.7395C25.0525 31.7712 25.0731 31.799 25.0998 31.82V31.82C25.1006 31.8495 25.1082 31.8784 25.1221 31.9044C25.136 31.9305 25.1557 31.9529 25.1798 31.97V31.97C25.0344 32.2398 24.9427 32.5352 24.9098 32.84C24.8722 33.2013 24.8959 33.5665 24.9798 33.92C24.7298 34.25 24.4998 34.59 24.2598 34.92H25.1798C27.39 31.8373 29.9617 29.0306 32.8398 26.56H32.8298ZM25.2598 33.56C25.24 33.3438 25.24 33.1262 25.2598 32.91C25.3254 32.5538 25.5085 32.2299 25.7798 31.99C26.0194 31.9061 26.2803 31.9061 26.5198 31.99C26.0698 32.52 25.6298 33.06 25.2098 33.59L25.2598 33.56ZM26.7598 31.71L26.6298 31.61C26.5226 31.552 26.4083 31.5083 26.2898 31.48L26.6198 31.32C26.8329 31.2323 27.0539 31.1654 27.2798 31.12L26.7598 31.71V31.71ZM30.6798 26.97C30.986 26.8666 31.3067 26.8126 31.6298 26.81L30.8898 27.48C30.8326 27.3894 30.7578 27.3111 30.6698 27.25C30.5766 27.1789 30.4717 27.1247 30.3598 27.09C30.4698 27.09 30.5698 27 30.6798 26.97V26.97ZM29.2398 28.44C29.3296 28.0982 29.5301 27.7958 29.8098 27.58C29.9477 27.5288 30.0964 27.514 30.2417 27.5367C30.3871 27.5595 30.5241 27.6191 30.6398 27.71C30.1298 28.19 29.6398 28.71 29.1398 29.16C29.1472 28.9171 29.1807 28.6757 29.2398 28.44V28.44ZM30.2998 13.72C27.7398 15.72 22.0298 18.03 23.0598 15.08C23.5798 13.62 25.4198 13.08 27.1698 12.89C27.2001 12.732 27.2846 12.5896 27.4088 12.4873C27.533 12.3851 27.6889 12.3294 27.8498 12.33C28.006 12.3297 28.1578 12.3818 28.2811 12.4779C28.4043 12.5739 28.4919 12.7084 28.5298 12.86C29.1124 12.8668 29.6925 12.9372 30.2598 13.07C30.7098 13.18 30.4898 13.58 30.2598 13.72H30.2998ZM27.8498 9.91998C28.4494 10.0891 29.0013 10.396 29.4614 10.8161C29.9215 11.2363 30.2771 11.7581 30.4998 12.34C30.3198 12.34 30.0198 12.34 29.8498 12.34C29.709 12.3524 29.5682 12.3172 29.4498 12.24C27.7898 11.15 24.7898 10.47 23.0698 11.09C22.9533 11.1285 22.8323 11.1521 22.7098 11.16C23.9898 10.3 25.8498 9.30997 27.8498 9.89997V9.91998ZM19.6498 13.9C19.8102 14.2983 20.0148 14.6773 20.2598 15.03C21.2493 16.3924 22.6925 17.3569 24.3298 17.75C24.1583 17.7894 23.9846 17.8195 23.8098 17.84C22.1738 17.9383 20.5536 17.4723 19.2198 16.52C18.5433 16.0982 17.919 15.5981 17.3598 15.03L19.6498 13.9ZM11.7698 21.18C11.0569 21.2042 10.3475 21.2912 9.64983 21.44L9.9998 21.04C12.0216 18.9242 14.303 17.0728 16.7898 15.53C17.5537 16.1234 18.3705 16.6456 19.2298 17.09C20.2912 17.7155 21.4681 18.1203 22.6898 18.28C22.4915 19.0983 22.0401 19.8332 21.3998 20.38C21.0268 20.6734 20.6077 20.9031 20.1598 21.06C18.7381 21.366 17.2796 21.4637 15.8298 21.35C14.4811 21.2124 13.1253 21.1556 11.7698 21.18V21.18ZM14.5598 24.9C13.8927 24.2297 13.3328 23.4607 12.8998 22.62C13.8498 22.52 14.8398 22.46 15.8298 22.39C16.4998 22.34 17.1698 22.28 17.8298 22.19C18.5781 22.0775 19.3145 21.8968 20.0298 21.65C20.8797 21.3803 21.6129 20.8303 22.1098 20.09C22.4259 19.5331 22.6234 18.9169 22.6898 18.28C23.1689 18.3214 23.6507 18.3214 24.1298 18.28C24.0649 18.5537 24.0148 18.8308 23.9798 19.11C23.9371 19.3778 23.917 19.6488 23.9198 19.92V19.92C23.9216 20.2631 23.9895 20.6026 24.1198 20.92C24.2719 21.265 24.4893 21.5773 24.7598 21.84C25.3233 22.3487 26.0147 22.6944 26.7598 22.84C27.374 23.0046 28.0243 22.9731 28.6198 22.75L28.8098 22.69C26.9498 25.55 23.5698 27.51 20.9998 27.51C18.5695 27.5034 16.2403 26.5365 14.5198 24.82L14.5598 24.9ZM25.0398 31.26L20.6498 28.74C20.6217 28.7102 20.606 28.6709 20.606 28.63C20.606 28.5891 20.6217 28.5497 20.6498 28.52L21.1598 27.97C22.4262 27.9127 23.6636 27.571 24.7798 26.97C24.8278 27.0907 24.9125 27.1933 25.022 27.2632C25.1314 27.3332 25.2601 27.3671 25.3898 27.36C26.0698 27.36 27.9798 27.29 28.8898 27.29C28.8821 27.3109 28.8789 27.3333 28.8804 27.3556C28.8818 27.3778 28.8879 27.3996 28.8983 27.4193C28.9087 27.4391 28.923 27.4565 28.9405 27.4704C28.958 27.4843 28.9782 27.4944 28.9998 27.5H29.0898C28.9546 27.7251 28.8598 27.9722 28.8098 28.23C28.7448 28.6005 28.7448 28.9795 28.8098 29.35C28.3898 29.78 27.9798 30.21 27.5798 30.65C27.1932 30.6461 26.8084 30.7035 26.4398 30.82C26.2034 30.9005 25.9756 31.0043 25.7598 31.13L25.5398 31.29C25.544 31.2736 25.544 31.2564 25.5398 31.24C25.5167 31.2277 25.491 31.2213 25.4648 31.2213C25.4387 31.2213 25.4129 31.2277 25.3898 31.24C25.3509 31.2164 25.3045 31.2085 25.26 31.2178C25.2155 31.2271 25.1761 31.2529 25.1498 31.29" fill="#006667"/>
</svg>
