<svg width="195" height="36" viewBox="0 0 195 36" fill="none" xmlns="http://www.w3.org/2000/svg">
<path d="M58.1696 23.8901C59.1281 25.0418 59.655 26.4917 59.6595 27.9901C59.6814 29.2396 59.3335 30.4677 58.6595 31.5201C57.9164 32.6134 56.8752 33.4707 55.6595 33.9901C54.2116 34.6285 52.6416 34.9425 51.0596 34.9101H40.5596V9.25008H50.5596C52.1387 9.20471 53.7087 9.50506 55.1595 10.1301C56.3337 10.6301 57.3401 11.456 58.0596 12.5101C58.7162 13.4999 59.0642 14.6623 59.0596 15.8501C59.1075 17.1848 58.6785 18.4929 57.8495 19.5401C56.9995 20.5631 55.8757 21.3227 54.6096 21.7301C56.0308 21.9849 57.3087 22.7537 58.1996 23.8901H58.1696ZM44.8596 20.0001H50.1696C51.3441 20.0683 52.5072 19.737 53.4695 19.0601C53.8672 18.7317 54.1821 18.3144 54.3889 17.8419C54.5956 17.3695 54.6883 16.855 54.6595 16.3401C54.682 15.8285 54.5862 15.3186 54.3796 14.8501C54.1784 14.3763 53.8663 13.9579 53.4695 13.6301C52.5229 12.916 51.3533 12.5616 50.1696 12.6301H44.8596V20.0001ZM54.0896 30.4101C54.511 30.0544 54.8434 29.6051 55.0604 29.0981C55.2774 28.5912 55.3731 28.0405 55.3396 27.4901C55.364 26.9223 55.2577 26.3566 55.0288 25.8364C54.7999 25.3163 54.4547 24.8556 54.0196 24.4901C53.0211 23.7184 51.78 23.3284 50.5196 23.3901H44.8596V31.3901H50.6595C51.8846 31.468 53.0983 31.1142 54.0896 30.3901" fill="#026666"/>
<path d="M64.0005 11.09C63.7438 10.8395 63.5398 10.5401 63.4005 10.2095C63.2612 9.87889 63.1895 9.52379 63.1895 9.16505C63.1895 8.80631 63.2612 8.45121 63.4005 8.12062C63.5398 7.79002 63.7438 7.49061 64.0005 7.24003C64.2549 6.97424 64.5659 6.76919 64.9105 6.64006C65.2491 6.49893 65.6137 6.43077 65.9805 6.44004C66.3403 6.4358 66.6974 6.50382 67.0305 6.64006C67.3605 6.77103 67.66 6.96844 67.9105 7.22004C68.168 7.46975 68.3721 7.76913 68.5105 8.10005C68.642 8.41674 68.7067 8.75719 68.7005 9.10005C68.7102 9.45751 68.6449 9.81303 68.5089 10.1437C68.3728 10.4744 68.1689 10.7729 67.9105 11.02C67.6577 11.2713 67.359 11.4716 67.0305 11.61C66.6955 11.7384 66.3393 11.8029 65.9805 11.8C65.6155 11.8104 65.252 11.7492 64.9105 11.62C64.5701 11.4968 64.2599 11.3025 64.0005 11.05V11.09ZM68.0705 14.5101V34.87H63.7005V14.56L68.0705 14.5101Z" fill="#026666"/>
<path d="M79.77 15.0899C80.9141 14.4837 82.1957 14.184 83.49 14.2199V18.5999H82.4C81.7236 18.557 81.0451 18.6418 80.4 18.8499C79.7437 19.0631 79.1356 19.4028 78.61 19.8499C77.74 20.6799 77.31 22.1399 77.31 24.2299V34.8999H73V14.5599H77.3V17.4799C77.9061 16.4752 78.769 15.6502 79.8 15.0899" fill="#026666"/>
<path d="M86.3099 19.2101C87.1297 17.6895 88.3551 16.426 89.8499 15.5601C91.3674 14.6792 93.0955 14.2265 94.8499 14.2501C96.2292 14.2588 97.5916 14.5551 98.8499 15.1201C100.067 15.6258 101.145 16.4183 101.99 17.4301V7.6001H106.33V34.9101H102V31.8401C101.237 32.8764 100.235 33.7135 99.08 34.2801C97.7587 34.9546 96.2933 35.2978 94.8099 35.2801C93.0597 35.295 91.3394 34.8257 89.8393 33.9238C88.3392 33.022 87.1177 31.7229 86.3099 30.1701C85.4212 28.4784 84.9708 26.5908 85 24.6801C84.9648 22.7878 85.4159 20.9182 86.3099 19.2501V19.2101ZM101.11 21.0801C100.576 20.0928 99.7755 19.2752 98.7999 18.7201C97.8592 18.1818 96.7939 17.8991 95.71 17.9001C94.6296 17.8971 93.5663 18.169 92.6199 18.6901C91.6509 19.2347 90.8487 20.0334 90.2999 21.0001C89.6846 22.1162 89.3774 23.376 89.4099 24.6501C89.3871 25.9359 89.6935 27.2061 90.2999 28.3401C90.8248 29.3193 91.6047 30.1384 92.5571 30.7105C93.5095 31.2827 94.5989 31.5866 95.71 31.5901C96.8158 31.5972 97.9026 31.3031 98.854 30.7394C99.8053 30.1756 100.585 29.3635 101.11 28.3901C101.694 27.2567 101.999 26.0001 101.999 24.7251C101.999 23.4501 101.694 22.1935 101.11 21.0601" fill="#026666"/>
<path d="M112 15.2501C113.169 13.2835 114.848 11.6698 116.86 10.5801C119.051 9.42208 121.502 8.84529 123.979 8.90482C126.456 8.96434 128.877 9.65822 131.01 10.9201C133.175 12.2424 134.84 14.2477 135.74 16.6201H130.58C129.972 15.3527 128.987 14.3046 127.76 13.6201C126.471 12.9363 125.029 12.5921 123.57 12.6201C121.953 12.5957 120.357 12.992 118.94 13.7701C117.578 14.5322 116.47 15.6758 115.75 17.0601C114.987 18.6165 114.59 20.3268 114.59 22.0601C114.59 23.7934 114.987 25.5037 115.75 27.0601C116.497 28.4319 117.626 29.5574 119 30.3001C120.414 31.0891 122.011 31.4925 123.63 31.4701C125.089 31.4985 126.531 31.1543 127.82 30.4701C129.046 29.784 130.031 28.7364 130.64 27.4701H135.8C134.904 29.8401 133.239 31.8405 131.07 33.1501C128.823 34.5012 126.241 35.1942 123.62 35.1501C121.266 35.1807 118.944 34.6019 116.88 33.4701C114.873 32.3769 113.198 30.7638 112.03 28.8001C110.854 26.7412 110.235 24.4112 110.235 22.0401C110.235 19.669 110.854 17.339 112.03 15.2801" fill="#026666"/>
<path d="M139.77 19.2101C140.595 17.6935 141.819 16.4313 143.31 15.5601C144.829 14.6834 146.556 14.231 148.31 14.2501C149.791 14.2188 151.258 14.5411 152.59 15.1901C153.721 15.7539 154.717 16.5555 155.51 17.5401V14.6201H159.83V34.9101H155.51V31.9101C154.703 32.9261 153.678 33.7466 152.51 34.3101C151.061 35.0029 149.465 35.3296 147.861 35.2616C146.257 35.1936 144.694 34.733 143.31 33.9201C141.817 33.0093 140.6 31.7095 139.79 30.1601C138.909 28.4659 138.462 26.5795 138.49 24.6701C138.451 22.7787 138.899 20.909 139.79 19.2401L139.77 19.2101ZM154.59 21.0701C154.056 20.0829 153.255 19.2652 152.28 18.7101C151.339 18.1718 150.274 17.8891 149.19 17.8901C148.106 17.8885 147.04 18.1602 146.09 18.6801C145.123 19.2333 144.324 20.0386 143.78 21.0101C143.164 22.1262 142.857 23.386 142.89 24.6601C142.862 25.9464 143.168 27.2179 143.78 28.3501C144.299 29.331 145.074 30.1526 146.023 30.7273C146.973 31.302 148.06 31.6082 149.17 31.6133C150.279 31.6185 151.37 31.3223 152.324 30.7564C153.279 30.1905 154.062 29.3761 154.59 28.4001C155.174 27.2667 155.479 26.0102 155.479 24.7351C155.479 23.4601 155.174 22.2035 154.59 21.0701Z" fill="#026666"/>
<path d="M167.88 34.37C166.674 33.8515 165.618 33.0362 164.81 32C164.072 31.0391 163.652 29.8713 163.61 28.66H168.08C168.112 29.0937 168.242 29.5144 168.46 29.8901C168.675 30.2851 168.976 30.6269 169.34 30.8901C170.183 31.4885 171.198 31.7942 172.23 31.7601C173.208 31.7831 174.171 31.5188 175 31C175.307 30.823 175.561 30.5677 175.737 30.2602C175.913 29.9528 176.004 29.6042 176 29.25C176.007 28.8951 175.906 28.5465 175.71 28.25C175.509 27.9487 175.224 27.7124 174.89 27.5701C173.752 27.0593 172.571 26.6511 171.36 26.35C170.071 26.019 168.802 25.6116 167.56 25.13C166.573 24.734 165.695 24.1063 165 23.3C164.253 22.4024 163.871 21.2564 163.93 20.09C163.922 19.0069 164.274 17.9517 164.93 17.09C165.656 16.1402 166.628 15.4071 167.74 14.97C169.074 14.4322 170.502 14.167 171.94 14.19C173.992 14.0985 176.012 14.7165 177.66 15.94C178.369 16.5259 178.945 17.2552 179.35 18.08C179.748 18.9038 179.96 19.8052 179.97 20.72H175.67C175.65 20.2987 175.541 19.8864 175.35 19.5101C175.158 19.1206 174.881 18.779 174.54 18.5101C173.745 17.9284 172.774 17.6388 171.79 17.69C170.883 17.6285 169.978 17.8485 169.2 18.3201C168.917 18.4992 168.683 18.7468 168.52 19.0401C168.36 19.3269 168.281 19.6517 168.29 19.9801C168.28 20.2384 168.332 20.4955 168.44 20.7301C168.542 20.9652 168.696 21.1739 168.89 21.34C169.321 21.7312 169.828 22.0276 170.38 22.21C170.95 22.42 171.81 22.6901 172.94 23.0101C174.211 23.3192 175.458 23.7202 176.67 24.21C177.632 24.6139 178.49 25.2291 179.18 26.0101C179.918 26.8867 180.306 28.0048 180.27 29.15C180.276 30.2666 179.925 31.3558 179.27 32.2601C178.559 33.2136 177.596 33.951 176.49 34.3901C175.16 34.9384 173.729 35.2041 172.29 35.1701C170.776 35.1966 169.274 34.9036 167.88 34.31" fill="#026666"/>
<path d="M189.11 18V29.26C189.074 29.5564 189.105 29.8571 189.2 30.14C189.298 30.4206 189.451 30.6789 189.65 30.9C190.192 31.2878 190.857 31.4655 191.52 31.4H194.16V34.92H190.76C189.159 35.0245 187.573 34.5527 186.29 33.59C185.733 33.0263 185.306 32.3473 185.04 31.6009C184.774 30.8545 184.675 30.0589 184.75 29.27V18H182.3V14.56H184.75V9.5H189.08V14.56H194.08V18H189.11Z" fill="#026666"/>
<path d="M32.8298 26.56C33.1098 26.31 33.4098 26.08 33.6998 25.84V25.07C33.2798 25.41 32.8398 25.76 32.4298 26.07L31.9898 26.45C31.5347 26.3551 31.0649 26.3551 30.6098 26.45C30.3687 26.4988 30.1362 26.583 29.9198 26.7C29.8175 26.7504 29.7204 26.8107 29.6298 26.88H29.4398H29.3598C29.3394 26.8464 29.3074 26.8215 29.2698 26.81C29.226 26.797 29.179 26.8011 29.1381 26.8215C29.0973 26.842 29.0657 26.8772 29.0498 26.92V26.92C28.2498 26.86 26.5298 26.68 26.0498 26.62C25.9098 26.62 25.9398 26.39 26.0498 26.21C28.6398 24.49 30.8198 21.62 30.8598 18.37C30.9298 17.21 31.0198 16.37 31.1198 15.61C31.1198 15.13 31.2198 14.68 31.2698 14.18C31.2698 14.09 31.2698 14 31.2698 13.9V14C31.2698 14 31.2698 13.92 31.2698 13.87C31.2698 13.82 31.2698 13.73 31.2698 13.66C32.0505 13.3492 32.8616 13.1213 33.6898 12.98C33.5798 12.42 31.8798 12.33 31.0098 12.35C30.6985 11.4739 30.124 10.7153 29.365 10.1783C28.606 9.64128 27.6996 9.35198 26.7698 9.34998C24.5998 9.34998 22.4998 10.53 19.8598 13.28C19.6148 13.5339 19.3227 13.7377 18.9998 13.88C16.9883 14.8508 15.0986 16.0558 13.3698 17.47L7.52983 1.52997C7.3219 1.20901 7.00461 0.974358 6.63683 0.86954C6.26904 0.764721 5.87573 0.796839 5.52983 0.959963C5.36364 1.03757 5.21155 1.14233 5.07982 1.26996C5.0067 1.33916 4.95826 1.43044 4.942 1.52979C4.92575 1.62914 4.94254 1.73109 4.98979 1.81998L13.1098 17.68L13.0198 17.76L4.28978 1.36997C4.22199 1.23836 4.12588 1.12347 4.00829 1.03354C3.89069 0.943616 3.75456 0.880917 3.60979 0.849978C3.11676 0.742187 2.60112 0.832838 2.17442 1.10233C1.74773 1.37182 1.44434 1.79848 1.32982 2.28998C1.29222 2.43483 1.29171 2.5868 1.32842 2.73187C1.36512 2.87695 1.43782 3.01043 1.53978 3.11997L12.8498 17.9L12.7898 17.95L12.6998 17.89L1.69982 3.97998C1.63849 3.9024 1.55425 3.84612 1.45909 3.81919C1.36393 3.79225 1.26268 3.79602 1.16979 3.82996C0.991475 3.89873 0.825883 3.99675 0.679796 4.11997C0.387292 4.36722 0.193847 4.71175 0.135057 5.09021C0.0762663 5.46868 0.156074 5.85563 0.359788 6.17996L10.9498 16.61L8.38982 14.78C8.30266 14.7425 8.20481 14.738 8.11461 14.7675C8.02441 14.7969 7.94806 14.8583 7.89983 14.94C7.84757 15.019 7.82585 15.1143 7.83873 15.2082C7.85161 15.302 7.89816 15.388 7.96977 15.45L11.5698 17.39L7.8698 15.84C7.77612 15.8226 7.67934 15.8393 7.59685 15.8869C7.51435 15.9346 7.45154 16.0101 7.41979 16.1C7.38519 16.1892 7.38554 16.2882 7.42076 16.3772C7.45599 16.4662 7.52349 16.5386 7.60979 16.58L12.2198 17.86L12.5598 18.19C11.6079 18.9869 10.7062 19.8418 9.85979 20.75C9.05267 21.5846 8.34158 22.507 7.73979 23.5L7.33983 24.2L8.04979 23.83C9.4877 23.1576 11.0366 22.7543 12.6198 22.64C13.0629 23.5572 13.6542 24.3951 14.3698 25.12C15.8081 26.5938 17.6786 27.571 19.7098 27.91L19.5498 28.34C19.521 28.3983 19.5041 28.4618 19.5001 28.5267C19.4961 28.5917 19.505 28.6568 19.5264 28.7182C19.5478 28.7796 19.5813 28.8362 19.6248 28.8846C19.6683 28.9329 19.721 28.9722 19.7798 29L25.0298 31.64C25.0243 31.6735 25.0279 31.7079 25.0402 31.7395C25.0525 31.7712 25.0731 31.799 25.0998 31.82V31.82C25.1006 31.8495 25.1082 31.8784 25.1221 31.9044C25.136 31.9305 25.1557 31.9529 25.1798 31.97V31.97C25.0344 32.2398 24.9427 32.5352 24.9098 32.84C24.8722 33.2013 24.8959 33.5665 24.9798 33.92C24.7298 34.25 24.4998 34.59 24.2598 34.92H25.1798C27.39 31.8373 29.9617 29.0306 32.8398 26.56H32.8298ZM25.2598 33.56C25.24 33.3438 25.24 33.1262 25.2598 32.91C25.3254 32.5538 25.5085 32.2299 25.7798 31.99C26.0194 31.9061 26.2803 31.9061 26.5198 31.99C26.0698 32.52 25.6298 33.06 25.2098 33.59L25.2598 33.56ZM26.7598 31.71L26.6298 31.61C26.5226 31.552 26.4083 31.5083 26.2898 31.48L26.6198 31.32C26.8329 31.2323 27.0539 31.1654 27.2798 31.12L26.7598 31.71V31.71ZM30.6798 26.97C30.986 26.8666 31.3067 26.8126 31.6298 26.81L30.8898 27.48C30.8326 27.3894 30.7578 27.3111 30.6698 27.25C30.5766 27.1789 30.4717 27.1247 30.3598 27.09C30.4698 27.09 30.5698 27 30.6798 26.97V26.97ZM29.2398 28.44C29.3296 28.0982 29.5301 27.7958 29.8098 27.58C29.9477 27.5288 30.0964 27.514 30.2417 27.5367C30.3871 27.5595 30.5241 27.6191 30.6398 27.71C30.1298 28.19 29.6398 28.71 29.1398 29.16C29.1472 28.9171 29.1807 28.6757 29.2398 28.44V28.44ZM30.2998 13.72C27.7398 15.72 22.0298 18.03 23.0598 15.08C23.5798 13.62 25.4198 13.08 27.1698 12.89C27.2001 12.732 27.2846 12.5896 27.4088 12.4873C27.533 12.3851 27.6889 12.3294 27.8498 12.33C28.006 12.3297 28.1578 12.3818 28.2811 12.4779C28.4043 12.5739 28.4919 12.7084 28.5298 12.86C29.1124 12.8668 29.6925 12.9372 30.2598 13.07C30.7098 13.18 30.4898 13.58 30.2598 13.72H30.2998ZM27.8498 9.91998C28.4494 10.0891 29.0013 10.396 29.4614 10.8161C29.9215 11.2363 30.2771 11.7581 30.4998 12.34C30.3198 12.34 30.0198 12.34 29.8498 12.34C29.709 12.3524 29.5682 12.3172 29.4498 12.24C27.7898 11.15 24.7898 10.47 23.0698 11.09C22.9533 11.1285 22.8323 11.1521 22.7098 11.16C23.9898 10.3 25.8498 9.30997 27.8498 9.89997V9.91998ZM19.6498 13.9C19.8102 14.2983 20.0148 14.6773 20.2598 15.03C21.2493 16.3924 22.6925 17.3569 24.3298 17.75C24.1583 17.7894 23.9846 17.8195 23.8098 17.84C22.1738 17.9383 20.5536 17.4723 19.2198 16.52C18.5433 16.0982 17.919 15.5981 17.3598 15.03L19.6498 13.9ZM11.7698 21.18C11.0569 21.2042 10.3475 21.2912 9.64983 21.44L9.9998 21.04C12.0216 18.9242 14.303 17.0728 16.7898 15.53C17.5537 16.1234 18.3705 16.6456 19.2298 17.09C20.2912 17.7155 21.4681 18.1203 22.6898 18.28C22.4915 19.0983 22.0401 19.8332 21.3998 20.38C21.0268 20.6734 20.6077 20.9031 20.1598 21.06C18.7381 21.366 17.2796 21.4637 15.8298 21.35C14.4811 21.2124 13.1253 21.1556 11.7698 21.18V21.18ZM14.5598 24.9C13.8927 24.2297 13.3328 23.4607 12.8998 22.62C13.8498 22.52 14.8398 22.46 15.8298 22.39C16.4998 22.34 17.1698 22.28 17.8298 22.19C18.5781 22.0775 19.3145 21.8968 20.0298 21.65C20.8797 21.3803 21.6129 20.8303 22.1098 20.09C22.4259 19.5331 22.6234 18.9169 22.6898 18.28C23.1689 18.3214 23.6507 18.3214 24.1298 18.28C24.0649 18.5537 24.0148 18.8308 23.9798 19.11C23.9371 19.3778 23.917 19.6488 23.9198 19.92V19.92C23.9216 20.2631 23.9895 20.6026 24.1198 20.92C24.2719 21.265 24.4893 21.5773 24.7598 21.84C25.3233 22.3487 26.0147 22.6944 26.7598 22.84C27.374 23.0046 28.0243 22.9731 28.6198 22.75L28.8098 22.69C26.9498 25.55 23.5698 27.51 20.9998 27.51C18.5695 27.5034 16.2403 26.5365 14.5198 24.82L14.5598 24.9ZM25.0398 31.26L20.6498 28.74C20.6217 28.7102 20.606 28.6709 20.606 28.63C20.606 28.5891 20.6217 28.5497 20.6498 28.52L21.1598 27.97C22.4262 27.9127 23.6636 27.571 24.7798 26.97C24.8278 27.0907 24.9125 27.1933 25.022 27.2632C25.1314 27.3332 25.2601 27.3671 25.3898 27.36C26.0698 27.36 27.9798 27.29 28.8898 27.29C28.8821 27.3109 28.8789 27.3333 28.8804 27.3556C28.8818 27.3778 28.8879 27.3996 28.8983 27.4193C28.9087 27.4391 28.923 27.4565 28.9405 27.4704C28.958 27.4843 28.9782 27.4944 28.9998 27.5H29.0898C28.9546 27.7251 28.8598 27.9722 28.8098 28.23C28.7448 28.6005 28.7448 28.9795 28.8098 29.35C28.3898 29.78 27.9798 30.21 27.5798 30.65C27.1932 30.6461 26.8084 30.7035 26.4398 30.82C26.2034 30.9005 25.9756 31.0043 25.7598 31.13L25.5398 31.29C25.544 31.2736 25.544 31.2564 25.5398 31.24C25.5167 31.2277 25.491 31.2213 25.4648 31.2213C25.4387 31.2213 25.4129 31.2277 25.3898 31.24C25.3509 31.2164 25.3045 31.2085 25.26 31.2178C25.2155 31.2271 25.1761 31.2529 25.1498 31.29" fill="#006667"/>
<path d="M28.0902 12.5C27.9747 12.5232 27.8708 12.5857 27.7961 12.6768C27.7215 12.768 27.6807 12.8822 27.6807 13C27.6807 13.1178 27.7215 13.232 27.7961 13.3231C27.8708 13.4143 27.9747 13.4768 28.0902 13.5C28.1642 13.5149 28.2406 13.5131 28.3138 13.4949C28.3871 13.4767 28.4554 13.4424 28.5139 13.3946C28.5723 13.3467 28.6193 13.2865 28.6516 13.2183C28.6839 13.1501 28.7007 13.0755 28.7007 13C28.7007 12.9245 28.6839 12.8499 28.6516 12.7817C28.6193 12.7135 28.5723 12.6533 28.5139 12.6054C28.4554 12.5576 28.3871 12.5233 28.3138 12.5051C28.2406 12.4869 28.1642 12.4851 28.0902 12.5" fill="#006667"/>
</svg>
